<svg version="1.2" xmlns="http://www.w3.org/2000/svg" viewBox="0 0 489 571" width="489" height="571"><style>.a{fill:#662579}.b{fill:#9a5196}.c{fill:#7f3a86}</style><path class="a" d="m209.3 306.8l-34.3 20.7c2.7 4.6 7.6 10.1 12.6 15 4.9 4.9 11.7 10.6 14.9 12.5 3.3 1.9 9.8 4.9 14.5 6.7 5.1 1.9 12.5 3.6 18.5 4.4 7.8 1 12 1 19 0.1 4.9-0.6 12.1-2.2 16-3.5 3.9-1.3 10.1-4 14-6 3.9-2 9.7-5.9 13-8.7 3.3-2.8 8.4-7.8 11.2-11.3 2.9-3.4 5.3-7 5.3-8 0-1.2-5.1-4.7-16.8-11.6-9.2-5.4-19.8-11.7-23.7-14-3.9-2.3-7.7-4.6-8.5-5.1-0.8-0.5-5.7-3.4-10.8-6.5-5-3-9.5-5.5-10-5.5-0.4 0.1-16.1 9.4-34.9 20.8zm-153.8 91.9c-26.4 15.7-48.1 28.6-48.3 28.7-0.2 0.1-0.1 1.1 0.2 2.3 0.3 1.3 3.2 4.9 6.3 8.1 4.9 4.8 21.9 15.3 107.8 66.7 56.1 33.5 104.7 62.1 108 63.5 4.9 2 7.7 2.5 15 2.5 7.3 0 10.1-0.5 15-2.5 3.3-1.4 51.4-29.7 107-62.9 55.6-33.3 102.5-61.6 104.4-63 1.9-1.4 5.2-4.7 7.3-7.4 2.1-2.6 3.8-5.3 3.8-6 0-0.6-1.4-2-3.2-3-1.8-0.9-4.7-2.6-6.3-3.7-1.6-1.1-3.9-2.4-5-3-1.1-0.5-2.7-1.4-3.5-2-0.8-0.5-17.9-10.8-38-22.8-20.1-12-37.5-22.4-38.8-23-2-1.1-2.4-0.8-4.9 3-1.5 2.4-4.3 6.3-6.3 8.8-1.9 2.5-5.9 7.4-9 10.9-3 3.5-9.2 9.5-13.8 13.5-4.6 3.9-12.2 9.7-17 12.9-4.8 3.2-12.5 7.7-17.2 10.1-4.7 2.4-12.6 5.8-17.5 7.6-4.9 1.7-12.6 4-17 5.1-4.4 1.1-12.7 2.7-18.5 3.6-5.8 0.8-15.4 1.4-21.5 1.4-6.1-0.1-15.5-0.8-21-1.6-5.5-0.7-13.8-2.3-18.5-3.5-4.7-1.1-13.7-4.1-20-6.5-6.3-2.4-16.4-7.4-22.5-11-6.1-3.6-14.2-9-18-11.9-3.9-3-11.5-10.1-17-15.8-5.5-5.7-12.7-14.3-16-19-3.3-4.8-6.5-8.7-7-8.7-0.6-0.1-22.6 12.8-49 28.6z"/><path fill-rule="evenodd" class="b" d="m246.5 0.4c6.7 0.3 11.3 0.9 14 2.1 2.2 1 49.9 29.2 106 62.8 56.1 33.6 103.6 62.2 105.5 63.7 1.9 1.5 5.4 5.4 7.6 8.6 2.3 3.3 3.7 5.9 3 6-0.6 0.1-20.9 12-45.1 26.5-24.2 14.6-46.3 27.8-49 29.4-2.7 1.6-4.7 2.4-4.2 1.7 0.4-0.7-1.7-4.4-5.3-9.4-3.3-4.6-9-11.6-12.7-15.7-3.8-4.1-10.9-10.9-15.8-15-4.9-4.1-12.6-9.8-17-12.7-4.4-2.8-10.7-6.5-14-8.1-3.3-1.7-9.1-4.3-13-5.8-3.9-1.5-11.5-4.1-17-5.7-5.5-1.6-14.5-3.5-20-4.3-5.5-0.8-16.9-1.5-25.3-1.5-10.6 0-18.6 0.6-26.4 1.9-6.2 1.1-16.7 3.7-23.3 5.9-6.6 2.1-16.1 5.9-21 8.3-4.9 2.4-13.5 7.4-19 11-5.5 3.7-13.8 10.1-18.5 14.2-4.7 4.1-11.5 11-15.1 15.3-3.7 4.4-9.2 11.7-12.4 16.4-3.1 4.7-7.8 13-10.5 18.5-2.6 5.5-5.9 13.2-7.3 17-1.4 3.8-3.8 12.4-5.3 19-2.7 11.3-2.8 13.3-2.8 34 0 19.1 0.3 23.4 2.2 32.5 1.3 5.8 3.9 15.2 5.8 21 2 5.8 6 15.2 9 21 3 5.8 5.3 10.5 5.1 10.6-0.1 0-22 13-48.7 28.9-26.7 15.8-48.8 29.3-49.1 29.9-0.3 0.6-1.5-1.1-2.7-3.9-1.1-2.7-2.5-6.8-3.1-9-0.8-2.8-1.1-42.2-1.1-130.8 0-124.1 0-126.8 2-132.9 1.1-3.5 3.9-9.2 6.3-12.7 2.3-3.5 6-7.9 8.2-9.6 2.2-1.8 50-30.7 106.3-64.4 56.2-33.6 104-61.7 106.3-62.4 2.2-0.6 4.8-1.5 5.7-1.9 0.9-0.4 6.2-0.5 11.7-0.4zm2.5 203.3c4.1 0.3 11.1 1.3 15.5 2.4 4.4 1.1 11.4 3.5 15.5 5.5 4.1 2 10.2 5.5 13.5 7.8 3.3 2.4 8.9 7.5 12.5 11.3 3.6 3.9 7.2 8.2 8 9.7 1.3 2.4 1.3 2.8 0 3.7-0.8 0.5-16.1 9.7-34 20.5-17.9 10.7-33.2 19.9-34 20.4-0.8 0.5-16.6 9.9-35 20.9-18.4 11-34.2 20.2-35 20.6-1.1 0.4-2.4-1.4-5.2-7.5-2.1-4.4-4.6-11-5.5-14.7-1.2-4.8-1.7-10.8-1.7-20.3 0-12.4 0.3-14.3 3.2-23 1.7-5.2 4.8-12.2 6.7-15.5 2-3.3 5.5-8.4 7.8-11.4 2.3-3 7.1-7.9 10.7-10.9 3.6-2.9 8.8-6.7 11.5-8.3 2.8-1.6 8.6-4.3 13-6 4.4-1.7 11.8-3.7 16.5-4.4 4.7-0.7 11.9-1.1 16-0.8z"/><path fill-rule="evenodd" class="c" d="m482.8 143c0.1 0 1.4 2.6 5.7 11.5l0.3 124c0.1 68.2-0.1 127.6-0.6 132-0.5 4.4-1.9 10.3-3.2 13-1.2 2.8-2.4 4.4-2.6 3.8-0.2-0.7-0.8-1.1-1.4-0.8-0.6 0.3-2.5-0.5-4.3-1.8-1.7-1.3-3.9-2.6-4.7-3-0.8-0.4-2.9-1.6-4.5-2.7-1.6-1.1-3.9-2.4-5-2.9-1.1-0.5-3.7-2.1-5.8-3.5-2-1.4-3.9-2.6-4.2-2.6-0.3 0-2.5-1.4-5-3-2.5-1.6-4.7-3-5-3-0.3 0-2.5-1.4-5-3-2.5-1.6-4.7-3-5-3-0.3 0-2.4-1.3-4.8-2.8-2.3-1.5-5-3.1-6-3.5-0.9-0.4-1.7-1-1.7-1.4 0-0.5-0.6-0.8-1.3-0.9-0.6 0-3.9-1.8-7.2-3.9-3.3-2.1-6.2-4.2-6.5-4.7-0.3-0.5-0.8-0.8-1.2-0.6-0.4 0.1-1.6-0.5-2.8-1.4-1.1-1-2.1-1.6-2.3-1.4-0.1 0.3-3.3-1.5-7.2-3.9-3.9-2.4-22.3-13.5-41-24.6-18.7-11.1-34.6-20.3-35.3-20.3-0.6-0.1-1.2-0.3-1.2-0.6 0.1-0.3-2.4-2.1-5.5-4-3-1.9-5.5-3.8-5.5-4.2 0-0.5-0.3-0.6-0.8-0.3-0.4 0.2-1.6-0.3-2.7-1.3-1.2-0.9-2.6-1.8-3.3-1.9-0.7-0.2-3.8-1.9-7-3.9-3.1-2-5.8-4.1-6-4.5-0.1-0.5-0.5-0.7-1-0.5-0.4 0.3-4.3-1.7-8.7-4.4-4.4-2.7-9.9-5.9-12.2-7.2-2.3-1.3-4.1-2.5-3.9-2.8 0.2-0.3-0.1-0.5-0.7-0.6-0.7 0-3.3-1.3-6-2.7-2.6-1.5-4.5-3.3-4.4-3.9 0.2-0.7 16.3-10.9 35.8-22.7 19.5-11.7 52-31.2 72.4-43.4 20.4-12.1 57.5-34.3 82.5-49.3 25-15 45.6-27.3 45.7-27.4zm-115.7 102h-20v19l19.5 0.5 0.5 41.5h-20v20h20v20h20v-20h41v20h20v-20h20v-20h-20l0.5-41.5 19.5-0.5v-19h-20v-21h-20v21h-41v-21h-20z"/><path class="b" d="m387.4 234c0 5.2 0.1 7.3 0.3 4.5 0.2-2.8 0.2-7 0-9.5-0.2-2.5-0.3-0.2-0.3 5zm40 0c0 5.2 0.1 7.3 0.3 4.5 0.2-2.8 0.2-7 0-9.5-0.2-2.5-0.3-0.2-0.3 5zm-75.4 30.7c3 0.2 7.5 0.2 10 0 2.5-0.2 0-0.3-5.5-0.3-5.5 0-7.5 0.1-4.5 0.3zm102 0c3 0.2 7.5 0.2 10 0 2.5-0.2 0-0.3-5.5-0.3-5.5 0-7.5 0.1-4.5 0.3zm-66.6 71.3c0 5.2 0.1 7.3 0.3 4.5 0.2-2.7 0.2-7 0-9.5-0.2-2.5-0.3-0.2-0.3 5zm40 0c0 5.2 0.1 7.3 0.3 4.5 0.2-2.7 0.2-7 0-9.5-0.2-2.5-0.3-0.2-0.3 5zm-29.9-71.3c6.1 0.2 15.5 0.2 21 0 5.5-0.1 0.6-0.3-11-0.3-11.5 0-16 0.2-10 0.3zm-10.1 20.3c0 10.7 0.2 15.2 0.3 10 0.2-5.2 0.2-14 0-19.5-0.1-5.5-0.3-1.2-0.3 9.5zm40 0c0 10.7 0.2 15.2 0.3 10 0.2-5.2 0.2-14 0-19.5-0.1-5.5-0.3-1.2-0.3 9.5z"/><path class="c" d="m387.5 285.5v20.5h40v-41h-40z"/></svg>