<svg version="1.2" xmlns="http://www.w3.org/2000/svg" viewBox="0 0 294 333" width="294" height="333"><style>.a{fill:#248ec9}</style><path fill-rule="evenodd" class="a" d="m293 0l-0.5 3.8c-0.3 2-6.4 69.2-13.6 149.2-7.1 80-13 145.6-13.2 145.7-0.1 0.1-25.8 7.3-57.2 15.9-31.4 8.6-57.4 16.3-58 17-0.6 0.7-2.1 1.3-3.5 1.3-1.4 0-2.9-0.6-3.5-1.3-0.6-0.8-26.4-8.4-57.5-17.1-31.1-8.6-56.6-15.7-56.8-15.8-0.1-0.1-6.2-66.8-13.5-148.2-7.3-81.4-13.6-148.6-14.1-149.3-0.6-0.9 28.6-1.2 291.4-1.2zm-238.5 65.8c0.3 3.1 1 10.4 1.5 16.2 0.6 5.8 1 10.8 1 11.3 0 0.4 0.7 1.4 1.5 2.2 1.3 1.3 10.5 1.5 70.3 1.5 37.8 0 68.7 0.1 68.8 0.3 0 0.1-0.5 6.3-1.2 13.7-0.7 7.4-1.3 15-1.3 16.8l-0.1 3.2c-36.5 0-45.2 0.4-45.5 1-0.3 0.6-1.1 0.9-1.9 0.8-0.8-0.2-1.8-0.6-2.3-1.1-0.4-0.4-9.7-0.7-20.5-0.7-17.4 0-19.8 0.2-21.3 1.8-1 1-1.5 2.6-1.1 4.2 0.3 1.4 1.1 9 1.8 17 0.7 9 1.7 15 2.5 15.8 1 0.9 10.9 1.2 42.6 1.2 22.6 0 41.3 0.1 41.5 0.3 0.1 0.1-0.7 10.3-1.8 22.7-1.2 12.4-2.2 22.5-2.3 22.6-0.1 0-8.3 2.2-18.2 4.9-9.9 2.6-18.4 5-19 5.4-0.6 0.4-1.4 0.7-2 0.6-0.6 0-1.4-0.3-2-0.6-0.6-0.4-9.1-2.8-19-5.4-9.9-2.7-18.1-4.9-18.2-4.9-0.1-0.1-0.8-6.1-1.5-13.5-0.7-7.7-1.8-14.1-2.5-14.8-1-1-5.7-1.3-18.5-1.3-15-0.1-17.5 0.1-18.8 1.6-1.3 1.5-1.2 4.7 1 29.2 1.4 15.2 3 28 3.6 28.6 0.5 0.6 17.2 5.6 37 11 19.7 5.5 37.3 10 38.9 10 1.7 0 19.2-4.5 38.9-9.9 19.8-5.5 36.5-10.5 37-11.1 0.6-0.5 2.8-19.9 4.9-43 2.1-23 5.8-64.4 8.2-91.9 2.5-27.5 4.5-50.3 4.5-50.7 0-0.5-0.7-1.5-1.5-2.3-1.3-1.3-12.9-1.5-91.9-1.5-78.8 0-90.7 0.2-92 1.5-1.2 1.2-1.5 2.8-1.1 7.3z"/></svg>