<svg version="1.2" xmlns="http://www.w3.org/2000/svg" viewBox="0 0 800 602" width="800" height="602"><style>.a{fill:#2396ed}</style><path class="a" d="m617.1 127.8l7.5-11.4 13.1 8 5.8 4.1c14 10.8 43.5 38.4 49.8 84.3 11.2-2.1 22.4-3 33.7-3 26.7 0 44.6 6.1 54.8 11.3l5.3 2.9 3.4 2.2 9.5 7.8-3.3 10q-1.9 5.1-4.4 10-2.4 4.9-5.4 9.5-3 4.6-6.4 8.9-3.4 4.2-7.3 8.1c-14.5 14.9-40 32.6-80.5 34.9l-8.9 0.3h-7.4c-18.5 48.8-43.3 103.9-85.1 153.3q-9.2 10.9-19.4 21.1-10.1 10.2-21 19.6-11 9.3-22.6 17.8-11.7 8.4-24 15.9-14.7 8.7-30.1 16.1-15.5 7.5-31.5 13.6-16 6-32.5 10.7-16.5 4.7-33.3 8c-32.2 6.2-64.9 9.3-97.7 9.2-72.5 0-136.5-14.4-175.8-39.6-35.2-22.4-62.2-59.1-80.3-108.8q-5.9-17.1-10.4-34.5-4.4-17.5-7.3-35.3-2.9-17.8-4.3-35.8-1.3-17.9-1.1-35.9c0-3.1 0.5-6.2 1.5-9 1.1-2.9 2.6-5.6 4.6-8 1.9-2.3 4.3-4.3 7-5.8 2.6-1.5 5.5-2.6 8.5-3l3.4-0.3h527l4.6-0.3 7.5-0.8c12.8-1.7 32.3-5.5 46-13.5-16.4-27.2-21.1-58.9-13.4-92.7q1.2-5.3 2.7-10.5 1.6-5.2 3.5-10.3 1.9-5.1 4.1-10 2.2-5 4.7-9.7zm-472.6 62.4l2 0.3q0.7 0.3 1.3 0.7 0.6 0.4 1.1 0.9 0.5 0.5 0.9 1.2 0.3 0.6 0.5 1.3l0.3 2v65.8l-0.3 2q-0.2 0.7-0.5 1.3-0.4 0.7-0.9 1.2-0.5 0.5-1.1 0.9-0.7 0.4-1.4 0.7l-1.9 0.3h-70.6q-1 0-1.9-0.3-1-0.4-1.7-0.9-0.8-0.6-1.4-1.4-0.6-0.9-0.9-1.8l-0.3-2v-65.8l0.3-2q0.3-0.8 0.6-1.4 0.4-0.6 0.9-1.2 0.5-0.5 1.1-0.9 0.7-0.4 1.3-0.7l2-0.3c0 0 70.6 0 70.6 0.1zm97.3 0l2 0.3q0.7 0.3 1.3 0.7 0.6 0.4 1.1 0.9 0.5 0.5 0.9 1.2 0.4 0.6 0.6 1.3l0.3 2v65.8l-0.4 2q-0.2 0.7-0.5 1.3-0.4 0.7-0.9 1.2-0.5 0.5-1.1 0.9-0.7 0.4-1.4 0.7l-1.9 0.3h-70.6q-1 0-1.9-0.3-0.9-0.4-1.7-1-0.8-0.5-1.4-1.4-0.6-0.8-0.9-1.7l-0.3-1.9v-65.9q0-1 0.3-2 0.3-0.9 0.9-1.7 0.5-0.9 1.3-1.5 0.8-0.6 1.7-0.9l2-0.4c0 0 70.6 0 70.6 0.1zm98.8 0l2 0.3q0.7 0.3 1.3 0.7 0.6 0.4 1.1 0.9 0.5 0.5 0.9 1.2 0.3 0.6 0.5 1.3l0.4 2v65.8l-0.4 2q-0.2 0.7-0.5 1.3-0.4 0.7-0.9 1.2-0.5 0.5-1.1 0.9-0.7 0.4-1.4 0.7l-1.9 0.3h-70.6q-1 0-1.9-0.3-1-0.4-1.7-0.9-0.8-0.6-1.4-1.4-0.6-0.9-0.9-1.8l-0.3-2v-65.8l0.3-2q0.3-0.8 0.6-1.4 0.4-0.6 0.9-1.2 0.5-0.5 1.1-0.9 0.7-0.4 1.3-0.7l2-0.3c0 0 70.6 0 70.6 0.1zm97.6 0l2 0.3q0.7 0.3 1.3 0.7 0.6 0.4 1.1 0.9 0.5 0.5 0.9 1.2 0.4 0.6 0.6 1.3l0.3 2v65.8q0.1 1-0.2 1.9-0.3 1-0.9 1.8-0.6 0.8-1.4 1.4-0.8 0.7-1.7 1l-2 0.3h-70.6q-0.9 0-1.9-0.3-0.9-0.4-1.7-0.9-0.8-0.6-1.3-1.4-0.6-0.9-0.9-1.8l-0.3-2v-65.8l0.3-2q0.2-0.8 0.6-1.4 0.4-0.6 0.9-1.2 0.5-0.5 1.1-0.9 0.6-0.4 1.3-0.7l2-0.3c0 0 70.6 0 70.5 0.1zm98.5 0l2 0.3q0.7 0.3 1.3 0.7 0.6 0.4 1.1 0.9 0.5 0.5 0.9 1.2 0.4 0.6 0.6 1.3l0.3 2v65.8q0 1-0.3 1.9-0.3 1-0.9 1.8-0.5 0.8-1.3 1.4-0.8 0.7-1.8 1l-1.9 0.3h-70.6q-1 0-1.9-0.3-1-0.4-1.7-0.9-0.8-0.6-1.4-1.4-0.6-0.9-0.9-1.8l-0.3-2v-65.8l0.3-2q0.3-0.8 0.6-1.4 0.4-0.6 0.9-1.2 0.5-0.5 1.1-0.9 0.7-0.4 1.3-0.7l2-0.3c0 0 70.6 0 70.6 0.1zm-295-94.6l2 0.3q0.7 0.3 1.3 0.7 0.6 0.4 1.1 0.9 0.5 0.5 0.9 1.1 0.4 0.7 0.6 1.4l0.3 2v65.8q0.1 1-0.2 1.9-0.3 1-0.9 1.8-0.6 0.8-1.4 1.4-0.8 0.7-1.7 1l-2 0.4h-70.5q-1-0.1-1.9-0.4-1-0.3-1.8-0.9-0.7-0.7-1.3-1.5-0.6-0.8-0.9-1.7l-0.3-2v-65.8q0-1 0.3-1.9 0.3-1 0.9-1.8 0.5-0.8 1.3-1.4 0.8-0.7 1.8-1l1.9-0.3c0 0 70.6 0 70.5 0zm98.8 0l2 0.3q0.7 0.3 1.3 0.7 0.6 0.4 1.1 0.9 0.5 0.5 0.9 1.1 0.4 0.7 0.6 1.4l0.3 2v65.8q0.1 1-0.2 1.9-0.3 1-0.9 1.8-0.6 0.8-1.4 1.4-0.8 0.7-1.7 1l-2 0.4h-70.5q-1-0.1-1.9-0.4-1-0.3-1.8-0.9-0.7-0.7-1.3-1.5-0.6-0.8-0.9-1.7l-0.3-2v-65.8l0.3-2q0.3-0.7 0.6-1.3 0.4-0.7 0.9-1.2 0.5-0.5 1.1-0.9 0.7-0.4 1.3-0.7l2-0.3c0 0 70.6 0 70.5 0zm97.7 0c2.7 0 5 1.8 5.8 4.4l0.4 2v65.8q0 1-0.3 1.9-0.3 1-0.9 1.8-0.5 0.8-1.3 1.4-0.8 0.7-1.8 1l-2 0.4h-70.5q-0.9-0.1-1.9-0.4-0.9-0.3-1.7-0.9-0.8-0.7-1.4-1.5-0.5-0.8-0.8-1.7l-0.3-2v-65.8l0.3-2q0.2-0.7 0.6-1.3 0.4-0.7 0.9-1.2 0.5-0.5 1.1-0.9 0.6-0.4 1.3-0.7l2-0.3c0 0 70.6 0 70.5 0zm0-94.6c2.7 0 5 1.8 5.8 4.4l0.4 2v65.8q0 1-0.3 1.9-0.3 1-0.9 1.8-0.5 0.8-1.3 1.4-0.8 0.7-1.8 1l-2 0.3h-70.5q-0.9 0-1.9-0.3-0.9-0.4-1.7-0.9-0.8-0.6-1.3-1.4-0.6-0.9-0.9-1.8l-0.3-2v-65.8l0.3-2q0.2-0.8 0.6-1.4 0.4-0.6 0.9-1.2 0.5-0.5 1.1-0.9 0.6-0.4 1.3-0.6l1.9-0.3c0 0 70.6 0 70.6 0z"/></svg>