<svg version="1.2" xmlns="http://www.w3.org/2000/svg" viewBox="0 0 800 800" width="800" height="800"><style></style><path  d="m800 619.6c-5.8 2.2-11.9 3.3-18.1 3.3-6.1 0-12.3-1.1-18-3.3-5.8-2.2-11.1-5.4-15.7-9.5-4.7-4.1-8.5-9-11.4-14.5l-115-159-16.6-22.3-133.5 181.5c-2.7 5.2-6.3 9.9-10.7 13.9-4.3 3.9-9.4 7.1-14.8 9.2-5.5 2.2-11.4 3.3-17.2 3.4-5.9 0.1-11.8-0.9-17.3-2.9l171.9-230.7-159.9-208.3c5.7-2.1 11.7-3.2 17.8-3.2 6 0 12.1 1 17.8 3 5.7 2 11 5 15.8 8.8 4.7 3.8 8.7 8.4 11.9 13.6l119.2 161 119.9-160.4c2.7-5.1 6.3-9.7 10.7-13.6 4.3-3.8 9.4-6.8 14.8-8.8 5.5-2.1 11.3-3.1 17.1-3.1 5.8 0.1 11.5 1.2 17 3.3l-62.1 82.3-84.1 109.5c-2.3 2-4.2 4.6-5.4 7.5-1.3 2.8-2 5.9-2 9 0 3.2 0.7 6.3 2 9.1 1.2 2.9 3.1 5.4 5.4 7.5l160.2 213.7zm-800-233.7l14-69.2c38.5-136.7 195.3-193.6 303.2-109 63.1 49.7 78.9 119.9 75.8 199.1h-355.8c-5.8 141.5 96.3 226.9 226.8 183.2 10.5-3.8 20.5-8.8 29.8-15.1 9.3-6.2 17.8-13.6 25.3-22 7.5-8.3 13.9-17.5 19.1-27.4 5.2-9.9 9.2-20.4 11.8-31.3 6.9-22.2 18.3-26 39.2-19.6-1.8 13.5-5 26.7-9.7 39.5-4.7 12.8-10.9 24.9-18.3 36.3-7.5 11.4-16.2 21.9-26 31.4-9.8 9.4-20.7 17.7-32.3 24.7-19.3 10.5-40 17.9-61.5 22-21.6 4-43.6 4.7-65.3 1.9-21.8-2.7-42.9-8.9-62.8-18.3-19.8-9.3-38-21.7-54-36.7-7.8-8.9-15-18.4-21.3-28.4-6.4-10-11.9-20.5-16.5-31.5-4.7-10.9-8.4-22.1-11.2-33.7-2.8-11.5-4.7-23.2-5.6-35 0-7.9-2.7-15.2-4.5-22.2q-0.1-4.9-0.1-9.7-0.1-4.8-0.1-9.6 0-4.9 0-9.7c0-3.2 0-6.4 0-9.7zm37.6-9.5h321.8c-2-102.6-66.7-175.3-153-176-96.1-1.3-164.8 69.8-169 175.5z"/></svg>