<svg version="1.2" xmlns="http://www.w3.org/2000/svg" viewBox="0 0 702 700" width="702" height="700"><style>.a{fill:#ee513b}</style><path class="a" d="m338 1.6c-3 0.8-8 2.8-11 4.5-4.1 2.2-14.1 11.5-39.2 36.7l-33.8 33.7 80.5 80.7c8.1-1.7 13-2.2 16-2.2 3 0 7.9 0.5 10.8 1.1 2.8 0.6 8.6 2.7 12.7 4.6 5.5 2.6 9.2 5.2 14.1 10.1 4.1 4.2 7.8 9.1 9.7 13.2 1.8 3.6 4 10.1 4.9 14.5 1.4 6.9 1.4 9.3 0.4 17l-1.3 9c75.1 75 80 79.5 82.2 79 1.4-0.3 6.5-0.8 11.5-1.1 6.7-0.5 10.6-0.2 15.2 1 3.5 0.9 9.1 3 12.5 4.7 3.8 1.9 8.9 5.8 12.9 9.8 3.6 3.7 7.7 9 9.2 12.1 1.5 3 3.4 8 4.2 11 0.8 3 1.5 9.3 1.5 14 0 4.9-0.7 10.8-1.6 14-0.9 3-3 8.1-4.7 11.4-1.8 3.2-5.7 8.4-8.8 11.5-3.1 3.1-8.3 7-11.5 8.8-3.3 1.7-8.4 3.8-11.4 4.7-3.2 1-9.2 1.6-14.5 1.6-6.1 0-11.1-0.6-15.5-1.9-3.6-1.1-9.2-3.7-12.5-5.9-3.3-2.1-8.4-6.5-11.3-9.8-3-3.2-6.5-8.2-7.8-10.9-1.3-2.8-3-7.7-3.9-11-0.8-3.3-1.5-9.1-1.5-13 0-3.9 0.9-10.3 2-14.5l2.1-7.5c-57-56.9-73.9-73.2-74.3-72.9-0.5 0.2-0.8 43.6-0.8 96.4v96c8.1 5.3 12.2 8.6 14.2 10.9 2.1 2.3 5.2 6.2 6.8 8.8 1.7 2.7 3.9 7.5 4.9 10.8 1.1 3.3 2.2 9.1 2.6 13 0.5 5 0.2 9.2-0.9 14.5-0.9 4.1-3.2 10.4-5.1 14-2 3.9-6 9-9.7 12.6-3.5 3.3-8.3 7.2-10.8 8.7-2.5 1.4-8.3 3.6-13 4.8-6.7 1.7-10.2 2-16.5 1.6-4.4-0.3-10.7-1.5-14-2.7-3.3-1.1-8.3-3.6-11-5.4-2.8-1.8-7.2-5.5-9.8-8.2-2.8-2.8-6.5-8.3-8.8-12.9-2.7-5.6-4.3-10.4-5.1-16-1-6.3-0.9-9.6 0-15.5 0.7-4.1 2.8-10.6 4.6-14.5 1.9-3.9 5.8-9.7 8.7-12.9 3.2-3.5 8.6-7.8 13.2-10.5l7.8-4.6-0.1-190.5c-10.5-5.7-15.5-9.2-17.9-11.4-2.4-2.3-6.2-6.8-8.3-10.1-2.1-3.3-4.8-8.9-6.1-12.5-1.7-5.1-2.2-8.7-2.1-16.5 0-7.5 0.6-11.5 2.2-16l2.1-6-78.9-79c-191.7 191.9-215.3 216.1-217.3 220-1.4 2.7-3.2 7.5-4.1 10.5-0.9 3-1.6 8.9-1.6 13 0 4.1 0.7 10 1.6 13 0.9 3 2.9 8 4.5 11 2.3 4.4 33.2 35.8 159.2 161.7 127.9 127.8 157.2 156.6 161.5 158.7 2.8 1.4 7.8 3.3 11 4.1 3.1 0.8 8.6 1.5 12.2 1.5 3.6 0 9.2-0.7 12.5-1.6 3.3-0.9 8.3-2.7 11-4.1 3.9-2 38-35.5 161.2-158.6 126-125.9 156.9-157.3 159.2-161.7 1.6-3 3.6-8 4.5-11 0.9-3 1.6-8.6 1.6-12.5 0-3.9-0.7-9.6-1.5-12.8-0.8-3.1-2.7-8.1-4.1-11-2.1-4.2-30.9-33.5-158.7-161.4-124.8-124.9-157.3-156.9-161.7-159.2-3-1.7-8.2-3.7-11.5-4.5-3.3-0.9-9.1-1.6-13-1.5-3.8 0-9.5 0.7-12.5 1.5z"/></svg>