<svg version="1.2" xmlns="http://www.w3.org/2000/svg" viewBox="0 0 296 346" width="296" height="346"><style>.a{opacity:1;fill:#e95727}</style><path fill-rule="evenodd" class="a" d="m148 0c140.3 0 148 0.1 148 1.8 0 0.9-5.4 69.9-12.1 153.2-6.6 83.3-12.2 151.9-12.3 152.5-0.2 0.6-28 9.3-61.7 19.4-60.4 18-61.5 18.3-65.9 17.1-2.5-0.7-30.1-8.9-61.5-18.2-31.4-9.4-57.3-17.3-57.6-17.6-0.4-0.4-6.1-69.1-12.8-152.7-6.7-83.6-12.1-152.8-12.1-153.8 0-1.6 7.7-1.7 148-1.7zm-86 120.5c3.3 31.4 6 57.1 6 57.3 0 0.1 26.2 0.2 58.3 0.2 32 0 59.7 0.2 61.5 0.5l3.2 0.5c-0.9 9.7-2.2 20.8-3.6 31-1.3 10.2-2.5 18.5-2.6 18.6-0.2 0.1-8.6 2.8-18.8 6.2l-18.5 6c-27.9-9.4-36.2-12.4-36.5-12.8-0.3-0.4-1.7-7.4-3.2-15.4l-2.8-14.6h-37c0.8 5.8 2.2 18.8 3.5 32.5 1.4 13.8 2.5 25.8 2.5 26.8 0 1.4 7 4 36.8 13.8 31.1 10.3 37.2 12 40.2 11.4 1.9-0.5 3.9-1 4.5-1.1 0.6-0.2 15.6-5.3 33.5-11.4 17.9-6.1 32.6-11.2 32.6-11.3 0.1-0.1 2.7-24.5 5.8-54.2 3.1-29.7 5.9-55.9 6.1-58.2l0.5-4.3h-135.5c-4.4-30.6-5.8-40.4-5.8-41.5-0.2-2 0.6-2 73.8-2.5l73.9-0.5c4.3-24.8 5.5-32.8 5.5-33.7 0.1-1.7-5.1-1.8-94.9-1.8-52.2 0-95 0.3-95 0.8 0 0.4 2.7 26.4 6 57.7z"/></svg>