<svg version="1.2" xmlns="http://www.w3.org/2000/svg" viewBox="0 0 256 256" width="256" height="256"><style>.a{fill:#f7df1e}</style><path fill-rule="evenodd" class="a" d="m0 0h256v256h-256zm174 121.4c-1.9 1.3-4.7 3.5-6.3 5-1.5 1.4-3.8 5-5.2 7.8-1.4 2.9-2.8 7.5-3.1 10.3-0.4 2.8-0.1 7.7 0.6 11 0.7 3.3 1.9 7.2 2.6 8.7 0.8 1.6 3.1 4.7 5.2 7 2 2.3 6 5.5 8.7 7.3 2.8 1.7 9.9 5.3 16 7.9 6.1 2.6 12.5 5.9 14.3 7.2 2 1.5 3.6 3.8 4.2 6.1 0.8 3 0.6 4.5-0.8 7.2-0.9 1.9-3.3 4.3-5.2 5.3-2.7 1.5-5 1.9-10.5 1.6-5.3-0.3-8.2-1.1-11.8-3.1-2.6-1.5-5.9-4.5-7.4-6.7-1.6-2.2-3.1-4-3.5-4-0.5 0-1.8 0.6-3 1.4-1.3 0.7-5.6 3.2-9.5 5.5l-7.3 4.1c3.5 6.4 6.8 10.3 9.5 12.8 2.8 2.5 7.7 5.8 11 7.3 3.3 1.6 8.5 3.3 11.5 3.9 3 0.6 8.9 1 13 1 4.1 0 9.5-0.5 12-1.1 2.5-0.6 6.8-2.2 9.5-3.5 2.8-1.4 6.6-4 8.5-5.9 1.9-1.8 4.6-5.5 6-8.2 1.9-3.6 2.6-6.8 2.9-12.8q0.3-8-1.2-13.5c-0.9-3-3.1-7.4-4.9-9.8-1.8-2.4-6.2-6.3-9.8-8.7-3.6-2.4-11.6-6.5-17.9-9.2-6.3-2.6-13-6.2-14.8-7.8-2.7-2.5-3.2-3.7-3.3-7.5-0.1-3.6 0.5-5.1 2.6-7.3 1.5-1.5 3.8-2.8 5.3-2.9 1.4 0 3.9 0 5.6 0.1 1.7 0.2 4.3 1 5.8 1.9 1.6 1 3.7 3.2 4.8 4.9 1.8 3.1 2.1 3.2 4.2 1.9 1.2-0.7 5.5-3.4 9.5-6 3.9-2.5 7.2-4.9 7.2-5.4 0-0.4-1.7-3-3.8-5.7-2.1-2.8-6.2-6.4-9.2-8.2-3-1.8-7.6-3.7-10.3-4.3-2.6-0.5-7.5-1-10.9-0.9-3.5 0-8.8 0.7-11.8 1.5-3 0.8-7.1 2.5-9 3.8zm-59 38.3c0 23.7-0.4 44.4-1 46.3-0.5 1.9-1.7 4.3-2.7 5.3-1 1-3.8 2-6.3 2.3-2.8 0.4-5.8 0.1-8-0.8-2.2-0.9-4.6-3.1-6.5-6.1-1.7-2.5-3.3-4.6-3.7-4.7-0.5 0-5 2.6-10 5.7-5.1 3.1-9.5 5.8-9.8 6-0.3 0.1 0.7 2.2 2.1 4.5 1.5 2.4 4.6 6.1 7 8.2 2.4 2.2 6.9 5.1 9.9 6.5 4.9 2.3 6.7 2.6 17.5 2.6 10.8 0 12.5-0.3 17.5-2.6 3-1.4 7.2-4.3 9.3-6.5 2-2.1 4.6-5.8 5.7-8.2 1.1-2.3 2.4-7 3-10.5 0.5-3.4 1-25.2 1-48.5v-42.2h-25z"/></svg>