<svg version="1.2" xmlns="http://www.w3.org/2000/svg" viewBox="0 0 800 800" width="800" height="800"><style>.a{fill:#13aa52}.b{fill:#fff}</style><path fill-rule="evenodd" class="a" d="m398.8 0.1c13.8 0 28.5 0.3 32.4 0.9 4 0.5 11.8 1.4 17.3 2 5.5 0.6 15.2 2 21.5 3.1 6.3 1.2 16.2 3.2 22 4.5 5.8 1.4 15.9 4.1 22.5 6.1 6.6 1.9 17.2 5.5 23.5 7.8 6.3 2.4 14.4 5.6 18 7 3.6 1.5 13.2 6 21.5 10 8.2 4.1 21.1 11.1 28.5 15.5 7.4 4.5 18.6 11.8 24.9 16.3 6.2 4.5 16.1 12 22 16.6 5.8 4.7 19.2 17.1 29.7 27.5 10.5 10.5 23.9 25.2 29.8 32.6 5.9 7.4 14.9 19.8 20.1 27.5 5.1 7.7 12.3 19.4 16.1 26 3.7 6.6 9.4 17.6 12.7 24.5 3.2 6.9 8.3 18.6 11.2 26 2.9 7.4 7.1 19.4 9.3 26.5 2.2 7.1 5.4 18.6 7.1 25.5 1.6 6.9 3.9 17.7 5 24 1.1 6.3 2.9 19.7 4 29.7 1.5 12.8 2.1 24.7 2.1 39.5 0 12.2-0.7 27.7-1.5 36.3-0.9 8.3-2.3 19.5-3.1 25-0.8 5.5-2.6 15.4-3.9 22-1.4 6.6-4.5 19.2-7.1 28-2.5 8.8-6.8 22.1-9.6 29.5-2.8 7.4-8 20-11.7 28-3.7 8-10 20.4-14 27.5-4 7.1-11.5 19.3-16.6 27-5.1 7.7-14.2 20.1-20.2 27.5-5.9 7.4-17.3 20.2-25.3 28.4-8 8.2-19.2 18.9-25 23.9-5.8 5-16.4 13.4-23.5 18.8-7.1 5.3-18 12.8-24 16.6-6 3.8-16 9.7-22 13.1-6 3.3-15.5 8.1-21 10.7-5.5 2.5-13.8 6.2-18.5 8.2-4.7 1.9-12.8 5.1-18 7-5.2 1.9-16.3 5.4-24.5 7.8-8.3 2.4-21.8 5.7-30 7.4-8.3 1.6-20.9 3.7-28 4.5-7.1 0.9-16.6 2.1-21 2.6-4.4 0.6-18.7 1-31.8 1-13 0-27-0.4-31-1-3.9-0.5-11.7-1.4-17.2-2-5.5-0.6-15.2-2-21.5-3.1-6.3-1.1-16.2-3.2-22-4.5-5.8-1.4-17.3-4.5-25.5-7-8.3-2.5-21.3-7-29-10.1-7.7-3.1-21.2-9.1-30-13.4-8.8-4.3-22.2-11.5-29.8-16.1-7.6-4.6-19.7-12.6-26.9-17.8-7.2-5.2-18.5-14.1-25.2-19.6-6.7-5.6-19.1-17.3-27.6-26-8.5-8.8-20-21.5-25.5-28.4-5.5-6.9-13-16.8-16.7-22-3.6-5.2-9.7-14.7-13.6-21-3.8-6.3-9.9-17.1-13.5-24-3.6-6.9-9.3-19-12.7-27-3.4-8-8.6-21.7-11.5-30.5-3-8.8-6.9-22.5-8.9-30.5-1.9-8-4.4-19.7-5.5-26-1.1-6.3-3-20.1-4.1-30.5-1.9-16.4-2.1-22.6-1.7-45.5 0.3-15 1.2-31.9 2.1-39 0.9-6.9 2.5-17.9 3.6-24.5 1.2-6.6 3.7-18.5 5.7-26.5 1.9-8 5.9-21.7 8.8-30.5 2.9-8.8 8-22.5 11.4-30.5 3.5-8 9.2-20.1 12.8-27 3.6-6.9 9.7-17.7 13.5-24 3.9-6.3 10-15.8 13.6-21 3.7-5.2 11.2-15.1 16.7-22 5.5-6.9 17-19.6 25.5-28.4 8.5-8.7 20.9-20.4 27.6-26 6.7-5.5 18-14.4 25.2-19.6 7.2-5.2 19.3-13.2 26.9-17.8 7.6-4.6 21-11.8 29.8-16.1 8.8-4.3 22.3-10.3 30-13.4 7.7-3.1 20.7-7.6 29-10.1 8.2-2.5 19.7-5.6 25.5-7 5.8-1.3 15.7-3.4 22-4.5 6.3-1.1 16.2-2.5 22-3.1 5.8-0.7 13-1.5 16-2 3-0.4 16.9-0.8 30.7-0.9zm1.9 166.4c-0.4 2.2-2 6.2-3.4 8.9-1.8 3.2-6.1 7.9-12.7 13.6-5.5 4.8-13.4 12.5-17.6 17.1-4.1 4.6-10 11.6-13.1 15.4-3.1 3.8-8.8 11.9-12.8 18-3.9 6.1-9.1 14.6-11.5 19-2.4 4.4-6.4 12.6-8.9 18.3-2.6 5.6-6.4 15.5-8.6 22-2.3 6.4-5.4 16.9-7 23.2-1.6 6.3-3.6 15.3-4.5 20-0.8 4.7-2.2 14.1-3 21-0.8 6.9-1.5 20.3-1.5 29.8 0 10.1 0.7 22.3 1.6 29.5 0.9 6.7 3.2 18.3 5 25.7 1.9 7.4 5.5 18.7 8 25 2.5 6.3 7.3 16.7 10.6 23 3.3 6.3 9 16 12.6 21.5 3.7 5.5 10.2 14.5 14.6 20 4.4 5.5 13.4 15.4 20.1 22 6.6 6.6 15.2 14.5 19.2 17.5 4.5 3.5 7.3 6.4 7.6 8 0.3 1.4 1.8 14.1 3.4 28.3l2.8 25.7h9c2.9-20.5 4.8-32.6 6.1-40 1.4-7.4 2.9-15.1 3.4-17 0.7-2.7 2.7-5 9.2-10.1 4.6-3.6 12.5-11.1 17.7-16.5 5.1-5.4 13-14.9 17.6-20.9 4.6-6 10.9-15.3 14-20.5 3.1-5.2 7.5-13.6 9.9-18.5 2.4-4.9 6-13.5 8.1-19 2-5.5 5-14.9 6.5-21 1.5-6.1 3.6-15.5 4.5-21 0.9-5.5 2-16.5 2.4-24.5 0.4-8 0.4-20.8 0-28.5-0.5-7.7-1.3-17.4-1.9-21.5-0.6-4.1-2.9-14-5-22-2.2-8-5.5-19.2-7.5-25-2-5.8-5.7-15.2-8.1-21-2.5-5.8-7.2-15.7-10.6-22-3.3-6.3-8.8-15.8-12.3-21-3.4-5.2-9.4-13.6-13.2-18.5-3.9-4.9-13.3-15.7-20.9-24-8.8-9.4-15.6-17.8-18.4-22.5-2.4-4.1-5.8-10.7-7.5-14.5l-3.2-7z"/><path class="a" d="m404.6 351.8c-0.2 0.5-0.9 6.7-1.5 13.8-0.6 7.1-1.6 34.5-2.2 60.9-0.6 26.4-0.9 59.7-0.6 74 0.3 18.7 0.9 28 2 33 0.9 3.9 2.8 10.6 4.2 15 1.5 4.8 3.7 9.4 5.6 11.5l3 3.5c-0.9-44.2-1.8-75.9-2.6-99-0.8-23.1-2-52.1-2.5-64.5-0.6-12.4-1.5-27.7-2-34-0.5-6.3-1-12.3-1-13.3 0-0.9-0.4-1.7-1-1.7-0.5 0-1.1 0.4-1.4 0.8z"/><path class="b" d="m400.3 439.5c0 3.9 0.2 5.2 0.4 3 0.2-2.2 0.2-5.4 0-7-0.2-1.6-0.4 0.1-0.4 4z"/></svg>