<svg version="1.2" xmlns="http://www.w3.org/2000/svg" viewBox="0 0 800 800" width="800" height="800"><style>.a{fill:#ff6c37}</style><path fill-rule="evenodd" class="a" d="m405 0.5c23.8 0.3 37.9 0.9 45.5 1.9 6.1 0.9 15.9 2.5 22 3.6 6.1 1.2 19.6 4.3 30 7 10.5 2.7 23.3 6.4 28.5 8.3 5.2 1.9 14.5 5.5 20.5 8 6 2.5 15.3 6.5 20.5 9 5.2 2.4 15.1 7.5 22 11.4 6.9 3.8 17 9.9 22.5 13.5 5.5 3.6 16.3 11.2 24 17 7.7 5.7 19.2 15.2 25.5 21 6.3 5.7 17.1 16.3 23.9 23.4 6.8 7.1 16.8 18.3 22.1 24.9 5.3 6.6 13.5 17.6 18.2 24.5 4.6 6.9 10.7 16.3 13.5 21 2.7 4.7 7.7 13.7 11 20 3.3 6.3 8.3 16.7 11.1 23 2.8 6.3 7.2 17.1 9.7 24 2.5 6.9 6.6 19.5 9.1 28 2.4 8.5 5.8 22 7.4 30 1.6 8 3.9 21.9 5.1 31 1.9 14.2 2.2 21.4 2.2 51.5 0.1 31.5-0.1 36.5-2.2 49.5-1.2 8-3.3 20.4-4.7 27.5-1.4 7.1-4.5 19.8-6.9 28-2.4 8.3-6.3 20.6-8.8 27.5-2.5 6.9-7.6 19.3-11.2 27.5-3.7 8.3-10.5 22-15.2 30.5-4.7 8.5-13 22-18.4 30-5.3 8-14.6 20.6-20.5 28-5.9 7.4-18.7 21.4-28.3 31-9.7 9.7-23.9 22.7-31.6 28.9-7.7 6.3-19.9 15.3-27 20.1-7.1 4.7-16.8 10.9-21.5 13.7-4.7 2.7-14.1 7.9-21 11.5-6.9 3.6-17.9 8.8-24.5 11.6-6.6 2.8-19 7.6-27.5 10.6-8.5 2.9-23.8 7.4-34 10-10.2 2.5-25.1 5.7-33.3 7.1-8.1 1.4-21.6 3-29.9 3.6-9.6 0.7-26.3 0.9-44.8 0.6-21.8-0.5-32.9-1.2-42.5-2.6-7.1-1.1-17.7-3-23.5-4.1-5.8-1.2-14.1-3-18.5-4.1-4.4-1.1-12.5-3.4-18-5-5.5-1.6-16.3-5.2-24-8-7.7-2.8-18.9-7.4-25-10.1-6.1-2.7-17.8-8.5-26-12.9-8.3-4.4-22.7-13.1-32-19.4-9.3-6.3-21.9-15.4-28-20.2-6.1-4.8-18.2-15.8-26.9-24.3-8.7-8.5-20.6-20.8-26.3-27.3-5.6-6.4-14.1-16.8-18.7-22.9-4.6-6.2-10.8-15.1-13.8-19.8-3.1-4.7-8.3-13.2-11.5-19-3.3-5.8-7.6-13.4-9.5-17-1.9-3.6-6-12.1-9.1-19-3.1-6.9-7.7-18.1-10.2-25-2.6-6.9-6.6-19.3-9-27.5-2.4-8.2-5.5-20.4-7-27-1.5-6.6-3.8-19.2-5.1-28-2.1-13.2-2.6-21.2-3.1-45-0.3-17.7-0.1-35.2 0.6-45 0.6-8.8 2.1-22.1 3.2-29.5 1.1-7.4 3.6-20 5.5-28 1.9-8 5.3-20.6 7.6-28 2.2-7.4 6.8-20.3 10-28.5 3.3-8.2 10.2-23.3 15.4-33.5 5.1-10.2 13.2-24.6 18-32 4.7-7.4 13-19.3 18.4-26.5 5.3-7.2 13.3-17.1 17.6-22 4.3-4.9 13.7-14.8 20.9-22 7.2-7.2 17.1-16.4 22-20.6 5-4.1 13.5-10.9 19-15.1 5.5-4.1 14.7-10.7 20.5-14.5 5.8-3.9 15-9.6 20.5-12.8 5.5-3.2 14.9-8.2 21-11.3 6.1-3 14.8-7.1 19.5-9.2 4.7-2.1 14.6-6 22-8.8 7.4-2.7 18.2-6.3 24-8 5.8-1.6 15-4.1 20.5-5.5 5.5-1.5 16.7-3.8 25-5.2 8.2-1.4 20.4-3.2 27-4 9-1 20.7-1.3 46.5-1zm-70 20c-8.5 1.5-22.5 4.4-31 6.6-8.5 2.2-19.6 5.4-24.5 7.1-4.9 1.7-14.6 5.3-21.5 8-6.9 2.7-20.2 8.7-29.5 13.3-9.3 4.6-22.6 11.9-29.5 16.2-6.9 4.3-17.5 11.4-23.5 15.7-6.1 4.4-15.3 11.3-20.5 15.4-5.2 4.2-17.8 15.9-28 26.1-10.6 10.6-23.1 24.4-29.1 32.1-5.8 7.4-14.7 19.6-19.6 27-5 7.4-11.4 17.8-14.4 23-2.9 5.2-8.3 15.8-12 23.5-3.7 7.7-9.2 20.5-12.2 28.5-3.1 8-6.7 18.1-8.1 22.5-1.4 4.4-3.6 12.5-5 18-1.4 5.5-3.2 13.4-4.1 17.5-0.9 4.1-2.2 11.8-3 17-0.8 5.2-1.9 13.8-2.5 19-0.6 5.2-1.1 24.8-1.1 43.5 0 28.7 0.4 36.3 2.1 49 1.1 8.3 2.7 18.6 3.6 23 0.8 4.4 3.3 14.8 5.4 23 2.1 8.3 4.8 17.7 5.8 21 1.1 3.3 4.3 12.3 7.2 20 2.9 7.7 8.1 20.1 11.7 27.5 3.5 7.4 9.1 18.5 12.5 24.5 3.4 6 9.7 16.4 14.1 23 4.4 6.6 11.4 16.5 15.6 22 4.1 5.5 12.8 15.9 19.2 23 6.4 7.1 15.4 16.6 20 21 4.7 4.4 12 11.2 16.4 15 4.4 3.9 12.3 10.2 17.5 14.1 5.2 3.9 14.4 10.4 20.5 14.5 6.1 4.1 13.7 9.1 17 11.1 3.3 2 13.2 7.2 22 11.6 8.8 4.4 19.8 9.6 24.5 11.5 4.7 2 14.1 5.6 21 8 6.9 2.5 17.2 5.9 23 7.5 5.8 1.7 16.1 4.2 23 5.6 6.9 1.4 17.7 3.5 24 4.6 6.3 1.1 20.7 2.5 32 3.1 15 0.9 27.1 0.9 45 0.1 19.1-0.8 28.4-1.7 42.3-4.1 9.7-1.7 25.5-5.1 35-7.5 9.4-2.5 23.1-6.6 30.2-9.2 7.1-2.6 17.7-6.7 23.5-9.1 5.8-2.5 15.9-7.2 22.5-10.5 6.6-3.3 15.1-7.9 19-10.1 3.9-2.2 13.3-8.1 21-13.2 7.7-5.1 17.6-12.1 22-15.5 4.4-3.5 12.7-10.4 18.5-15.4 5.7-5 15.2-13.8 21-19.6 5.8-5.8 13.9-14.6 18.1-19.5 4.1-5 10.9-13.5 15-19 4.2-5.5 10.3-14 13.6-19 3.3-5 8.6-13.5 11.8-19 3.1-5.5 8.3-15.2 11.5-21.5 3.2-6.3 7.8-16.2 10.3-22 2.4-5.8 6.6-16.4 9.2-23.5 2.6-7.1 6.4-19.5 8.6-27.5 2.1-8 5-20.6 6.3-28 1.3-7.4 3.2-19.6 4.1-27 1.4-11.2 1.6-19.4 1.2-48.5-0.4-28.4-0.9-37.6-2.6-48.5-1.1-7.4-3.2-19.1-4.6-26-1.4-6.9-3.9-17.4-5.6-23.5-1.7-6.1-5.1-16.9-7.6-24-2.5-7.1-6.6-17.7-9-23.5-2.5-5.8-7.6-16.7-11.4-24.2-3.8-7.6-9.6-18.4-13-24-3.4-5.7-9.7-15.5-14.2-21.8-4.4-6.3-11.5-15.8-15.6-21-4.2-5.2-10.7-12.9-14.6-17-3.8-4.1-10.6-11.1-15-15.6-4.4-4.5-12.3-11.9-17.5-16.6-5.2-4.6-14.7-12.2-21-16.9-6.3-4.8-16.2-11.8-22-15.6-5.8-3.9-14.8-9.4-20-12.4-5.2-2.9-15.8-8.3-23.5-12-7.7-3.7-19.9-9-27-11.9-7.1-2.8-17-6.5-22-8-5-1.6-15.3-4.5-23-6.4-7.7-1.9-20.3-4.6-28-6-7.7-1.3-18.1-2.9-23-3.5-4.9-0.6-22.5-1.3-39-1.6-22.5-0.3-33-0.1-42 1-6.6 0.8-19 2.6-27.5 4zm253 114.6c4.1-0.1 10.4 0.6 14 1.3 3.6 0.8 8.3 1.9 10.5 2.5 2.2 0.6 8 3.3 13 6.1 6.4 3.7 11.3 7.5 17 13.3 6.5 6.6 9 10.1 12.7 17.7 2.6 5.2 5.4 12.2 6.3 15.5 0.8 3.3 1.8 9.6 2.1 14 0.4 4.5 0.1 11.3-0.5 15.5-0.7 4.1-2.2 10.4-3.5 14-1.2 3.6-4.2 9.9-6.6 14-2.6 4.4-7.6 10.7-12.2 15.3-4.3 4.2-9.5 8.4-11.6 9.3-2 0.9-4.8 2.5-6.2 3.6-1.4 1.1-6.3 3.1-11 4.6-7.5 2.4-10.1 2.7-22.5 2.7-7.7 0-15.5-0.3-17.3-0.7-2.9-0.7-3.2-0.6-3.2 1.7 0 1.4-0.5 3.6-1 5-0.7 1.9-0.6 3.5 0.6 6.3 1.1 2.6 1.4 5.2 1 8.7-0.3 2.8-1.7 8.6-3.2 13-1.5 4.4-4.1 10.9-5.9 14.5-1.8 3.6-5.8 10.8-9 16-3.2 5.2-9.5 14.4-14.1 20.5-4.5 6.1-13.4 16.9-19.7 24-6.3 7.1-29.2 30.8-50.8 52.6-21.7 21.8-43.2 42.7-47.9 46.6-4.7 3.8-15.3 12.1-23.5 18.3-8.3 6.2-21.6 15.6-29.6 20.9-8 5.3-17.4 11.4-21 13.6-3.5 2.1-12.7 7.7-20.4 12.3-7.7 4.6-20.8 12.1-29 16.6-8.3 4.6-19.5 10.7-25 13.6-5.5 2.9-10.1 5.4-10.3 5.4-0.1 0.1 0.9 4.8 2.3 10.6 1.4 5.8 2.8 12.3 3.1 14.5 0.4 2.5 0.1 5.9-0.9 9-1 3-2.9 6.2-4.9 8-1.9 1.8-5.5 3.6-8.3 4.3-2.8 0.7-7 1.9-9.5 2.8-4 1.3-7.5 1.2-30-0.1-14-0.9-31.1-2.2-38-3-7.8-1-13.6-2.2-15.4-3.2-1.6-1-3.8-3.2-4.8-4.8-0.9-1.6-2-5-2.4-7.5-0.6-3.6-0.3-5.4 1.5-9 1.6-3.2 25.4-27.7 84.9-87.3 75.7-75.7 83.1-82.8 86.9-83.7 2.4-0.6 4.3-1.6 4.3-2.2 0-0.7 1-3.1 2.2-5.3 1.5-2.8 1.7-3.8 0.7-3.4-0.8 0.4-9.5 2.3-19.4 4.4-12.1 2.5-19.9 3.6-23.7 3.3-3.6-0.2-6.6-1-8.3-2.3-1.5-1.1-3.6-3.1-4.7-4.5-1.1-1.4-2.2-4.7-2.5-7.5-0.5-4.2-0.2-5.7 2-9.5 1.4-2.5 7.2-9.2 12.9-15 5.7-5.8 22.9-22.9 38.4-38 15.4-15.1 35.9-35 45.5-44.1 9.5-9.1 22.1-20.8 27.9-26 5.8-5.2 16.1-14.1 23-19.9 6.9-5.8 15.2-12.6 18.5-15.1 3.3-2.6 10.9-7.9 17-11.8 6-4 15-9.2 20-11.6 4.9-2.4 12.4-5.1 16.5-6 4.2-0.9 10.4-1.5 20.9-1l-0.7-4c-0.4-2.2-0.7-9.6-0.6-16.5 0-9 0.5-14.2 1.8-18.5 1-3.3 3.8-9.8 6.2-14.5 2.6-5.2 6.8-11.2 10.6-15.4 3.5-3.8 9.2-8.8 12.8-11.2 3.6-2.3 8.7-5.3 11.5-6.5 2.7-1.2 9-3.2 14-4.5 5.4-1.4 12-2.3 16.5-2.3zm-19.8 19.3c-3.7 1.2-9.2 3.9-12.2 5.9-3 1.9-7.6 5.7-10.2 8.4-2.6 2.6-6.3 7.5-8.3 10.8-1.9 3.3-4.5 8.9-5.7 12.5-1.8 5.3-2.2 8.7-2.1 18 0 9.8 0.4 12.7 2.8 19.5 1.5 4.4 4.2 10.3 6 13 1.8 2.8 6.2 7.7 9.7 11 3.5 3.3 8.3 7.2 10.8 8.7 2.5 1.4 7.4 3.6 11 4.9 5.4 1.9 8.6 2.3 18.5 2.3 10 0 13.2-0.4 19.2-2.5l7.3-2.4c-33.3-33.3-42.9-43.7-43-44.5 0-0.8 12.4-13.9 27.5-29l27.6-27.5c-12.1-6.9-18.3-9.7-21.6-10.6-3.3-0.9-9.1-1.9-13-2.2-3.9-0.3-9.4-0.1-12.3 0.4-2.8 0.5-8.2 2-12 3.3zm14.8 65.1l39.9 41c11.8-12.1 16.1-17.7 18.3-22 2-3.8 4.4-9.7 5.3-13 0.9-3.5 1.6-10 1.6-15.5 0-7-0.6-11.4-2.2-16.5-1.2-3.8-3.1-9-4.4-11.5-1.2-2.5-3.4-6-4.9-7.7-1.4-1.8-2.9-3.3-3.4-3.2-0.4 0-11.8 10.9-25.4 24.2zm-99.6 30.6c-3.8 2-10.3 5.7-14.5 8.4-4.1 2.6-12.4 8.5-18.5 13-6 4.5-16.4 12.8-23 18.5-6.6 5.7-16.9 14.9-23 20.3-6 5.5-24.3 22.9-40.7 38.6l-29.6 28.6c23.5 23.6 30.7 30.5 31.1 30.5 0.4 0 8.7-8.2 18.5-18.1 9.7-10 44.1-44.1 76.3-75.8 34.9-34.4 60-58.3 62.2-59.3 2.1-1 4.9-1.8 6.3-1.8 1.5 0 2.5-0.5 2.3-1.1-0.2-0.6-3-2.6-6.3-4.3-5.4-2.8-6.9-3.1-16-3.3-6-0.2-11.7 0.3-14.1 1-2.2 0.7-7.1 2.9-11 4.8zm37 17.4c-3.2 2.8-38 37-77.4 76.2l-71.6 71.2 19 19c76.1-67 103.8-91.3 110.6-97.4 6.9-6 20.7-18.4 30.9-27.5 10.1-9.1 19.1-17.6 20-19q1.5-2.4 1.5-9c-0.1-3.8-0.8-7.8-1.7-9.5-0.8-1.6-2.9-4.2-4.6-5.7-1.8-1.6-4.9-3.2-6.9-3.8-2.1-0.5-4.7-0.9-5.8-0.9-1.1 0.1-3.3 0.4-5 0.8-1.7 0.3-5.7 2.9-9 5.6zm-14 76c-22.5 19.8-50.4 44.3-62 54.4-11.5 10.2-26.7 23.6-33.7 29.8-7 6.2-12.8 11.8-12.8 12.3 0 0.6 5.8 6.9 12.8 14.1 7 7.2 13.2 12.9 13.7 12.7 0.6-0.2 18.1-17.6 39-38.8 20.9-21.2 42.1-43.4 47-49.4 5-5.9 12.2-15 16-20.1 3.9-5.1 9.8-14 13.3-19.7 3.4-5.6 7.5-13.4 9.2-17.3 1.6-3.8 3.6-9.7 4.3-12.9 0.8-3.3 1.4-6.1 1.3-6.3-0.1-0.2-1.8 0.9-3.6 2.5-1.9 1.5-21.9 19-44.5 38.7zm-218.6 81.7c0.1 1 1.4 1.1 5.4 0.5 2.9-0.5 17.8-3.5 33.2-6.9 15.4-3.3 28.1-6.1 28.3-6.1 0.1-0.1-5.6-6.4-12.8-13.9-7.1-7.6-13.6-13.8-14.3-13.8-0.8 0-10.1 8.8-20.7 19.5-10.6 10.7-19.2 20-19.1 20.7zm56.4 18.8c-0.2 0.6 0.5 1 1.5 1 0.9 0 9.2-1.7 18.4-3.7l16.7-3.8c-10.8-12-14.5-15.5-15.3-15.5-0.8 0-5.8 4.7-11.2 10.5-5.4 5.8-10 11-10.1 11.5zm0.2 10.9l-16 3.3-125 124.9c33.4 32.4 43.7 41.8 44.5 41.6 0.9-0.1 1.7-1.5 1.8-3.2 0.2-1.7-1-8.8-2.7-16-1.7-7.1-3-14.3-3-15.8 0-1.5 1-3.8 2.2-5 1.2-1.3 7.2-4.9 13.2-8.2 6.1-3.2 18.5-9.9 27.5-14.8 9.1-5 20.8-11.6 26-14.7 5.3-3.1 15.2-9.2 22-13.5 6.9-4.3 17.9-11.4 24.5-15.8 6.6-4.5 15.2-10.4 19-13.1 3.9-2.8 12.9-9.7 20-15.3 7.2-5.6 14.5-11.5 16.4-13l3.3-2.8c-22.7-20.9-30-27.1-31-27.2-0.9-0.1-7.3 1.1-14.2 2.6-6.8 1.5-19.7 4.3-28.5 6zm-178.6 167.2c0.1 0.5 1.6 1.1 3.4 1.4 1.8 0.3 7.5 0.9 12.7 1.4 5.3 0.5 19.1 1.6 30.7 2.3 11.7 0.7 21.4 1.1 21.7 0.8 0.3-0.3-7.5-8.9-17.4-19.2-9.9-10.4-18.6-18.8-19.4-18.8-0.7 0-8.2 7-16.6 15.6-8.3 8.6-15.1 16.1-15.1 16.5zm465.4-423.1c0.4 0 1.8 1 3.1 2.3 1.5 1.4 2.6 3.9 3 7.2 0.4 2.8 0.3 7-0.3 9.5-0.6 2.5-2.2 6.2-3.6 8.3-1.9 2.9-3 3.6-5.1 3.5-1.5-0.2-3.2-1.1-3.8-2-0.8-1.3-0.6-3 0.8-7 1.4-4.1 1.7-6.8 1.2-12-0.5-6.3-0.4-6.9 1.7-8.3 1.2-0.8 2.6-1.5 3-1.5z"/></svg>