<svg version="1.2" xmlns="http://www.w3.org/2000/svg" viewBox="0 0 2560 1565" width="2560" height="1565"><style>.a{fill:#38bdf8}</style><path class="a" d="m1224 1c-7.4 0.5-18.9 1.4-25.5 2-6.6 0.6-19.4 2-28.5 3.1-9.1 1.1-24.6 3.3-34.5 5-9.9 1.6-25.2 4.6-34 6.5-8.8 1.9-24.1 5.7-34 8.4-9.9 2.7-23.6 6.8-30.5 9.1-6.9 2.2-18.8 6.5-26.5 9.4-7.7 2.9-19.4 7.7-26 10.5-6.6 2.9-18.5 8.5-26.5 12.5-8 4-20.6 10.7-28 15-7.4 4.2-20.7 12.5-29.5 18.3-8.8 5.9-22.3 15.6-30 21.6-7.7 6-18.7 15-24.5 20-5.8 5-17.5 16.1-26 24.6-8.6 8.5-21 21.8-27.5 29.5-6.6 7.7-15 17.8-18.6 22.5-3.6 4.7-10.8 14.3-15.9 21.5-5 7.2-12.6 18.4-16.8 25-4.2 6.6-11.4 18.5-16 26.5-4.6 8-12.7 23.3-18.1 34-5.4 10.7-12.4 25.4-15.6 32.5-3.2 7.1-8.8 20.6-12.5 30-3.8 9.4-9.5 24.6-12.8 34-3.3 9.4-8.3 24.4-11 33.5-2.8 9.1-7.1 23.9-9.6 33-2.5 9.1-4.6 17.3-4.6 18.2 0 1 0.5 1.8 1 1.8 0.5 0 4.9-5.1 9.7-11.3 4.8-6.1 14.1-17.5 20.7-25.2 6.5-7.7 22.1-24.1 34.5-36.5 12.4-12.4 27.8-26.9 34.1-32.1 6.3-5.3 16.5-13.3 22.5-17.9 6-4.5 16-11.5 22-15.4 6-4 15.5-9.9 21-13.1 5.5-3.2 17.2-9.4 26-13.6 8.8-4.3 21.2-9.8 27.5-12.2 6.3-2.5 17.4-6.3 24.5-8.5 7.1-2.2 18.2-5.1 24.5-6.6 6.3-1.4 15.5-3.2 20.5-4.1 5-0.8 15.4-2.2 23.3-3 7.8-0.8 23.5-1.5 35-1.5 11.4 0 25.9 0.5 32.2 1 6.3 0.6 16.2 1.7 22 2.6 5.8 0.8 15 2.4 20.5 3.4 5.5 1 15 3.1 21 4.5 6 1.4 14.8 3.7 19.5 5.2 4.7 1.4 14.1 4.7 21 7.4 6.9 2.7 18.6 7.9 26 11.6 7.4 3.8 18.9 10.1 25.5 14.1 6.6 4 17.6 11.3 24.5 16.2 6.9 4.9 17.2 12.7 23 17.3 5.8 4.6 16.3 13.5 23.5 19.8 7.1 6.3 22.2 20.2 33.5 31 11.3 10.8 35.6 35 54 53.8 18.4 18.8 44.1 44.3 57 56.5 12.9 12.3 28.5 26.8 34.5 32.1 6 5.4 16.2 14.1 22.5 19.4 6.3 5.3 15.5 12.8 20.5 16.7 5 3.9 14.2 10.9 20.5 15.6 6.3 4.7 18 12.9 26 18.3 8 5.3 21.7 14 30.5 19.3 8.8 5.3 24.1 13.7 34 18.8 9.9 5.1 23.2 11.6 29.5 14.5 6.3 2.8 17.6 7.6 25 10.6 7.4 3 21.4 8.1 31 11.4 9.6 3.3 23.6 7.7 31 9.9 7.4 2.1 18 5 23.5 6.4 5.5 1.4 16.3 3.9 24 5.5 7.7 1.6 20.8 4.1 29 5.6 8.3 1.4 23.5 3.6 34 5 10.5 1.3 28.2 3.2 39.5 4.2 16.5 1.4 31 1.8 73.5 1.8 35 0 58.3-0.4 68.5-1.3 8.5-0.7 23.6-2.2 33.5-3.3 9.9-1.1 25.2-3.1 34-4.5 8.8-1.4 20.7-3.4 26.5-4.5 5.8-1.1 17.3-3.6 25.5-5.5 8.3-1.9 22-5.5 30.5-7.9 8.5-2.4 22-6.6 30-9.3 8-2.7 19.2-6.8 25-9 5.8-2.2 16.3-6.5 23.5-9.6 7.2-3.2 20.9-9.8 30.5-14.7 9.6-4.9 24.3-13 32.5-18 8.3-5 21.1-13.3 28.5-18.5 7.4-5.2 18.2-13.1 24-17.6 5.8-4.6 15.9-13 22.5-18.8 6.6-5.7 18.1-16.5 25.5-24 7.5-7.4 17.5-18 22.4-23.5 4.9-5.5 13.2-15.4 18.5-22 5.3-6.6 14.1-18.3 19.6-26 5.5-7.7 13.6-19.6 18-26.5 4.3-6.9 11.7-19 16.3-27 4.6-8 12.3-22.4 17.2-32 4.8-9.6 11.8-24.3 15.5-32.5 3.7-8.3 9.4-21.8 12.7-30 3.3-8.3 9.1-23.6 12.8-34 3.7-10.4 9.1-26.4 11.8-35.5 2.8-9.1 7.1-23.9 9.6-33 2.5-9.1 4.6-17.3 4.6-18.3 0-0.9-0.4-1.7-1-1.7-0.6 0-4.9 5.1-9.7 11.2-4.8 6.2-14.1 17.6-20.7 25.3-6.5 7.7-22.1 24.1-34.5 36.5-12.4 12.4-27.8 26.9-34.1 32.1-6.3 5.2-16 12.9-21.5 17.1-5.5 4.2-15.4 11.2-22 15.5-6.6 4.4-16.5 10.6-22 13.8-5.5 3.3-17.7 9.6-27 14.1-9.3 4.5-23.1 10.5-30.5 13.2-7.4 2.8-20 6.9-28 9.2-8 2.2-20.1 5.1-27 6.5-6.9 1.3-17.7 3.1-24 4-6.5 0.9-22.3 1.9-36.5 2.2-15.7 0.4-30 0.1-38.5-0.6-7.4-0.7-18.2-1.9-24-2.7-5.8-0.8-15.2-2.4-21-3.5-5.8-1.1-15.9-3.3-22.5-4.9-6.6-1.5-17.4-4.6-24-6.8-6.6-2.2-17.8-6.6-25-9.7-7.2-3.1-17.3-7.9-22.5-10.7-5.2-2.8-15.1-8.6-22-12.9-6.9-4.3-17.1-11.1-22.7-15.1-5.6-4-15-11.2-21-15.9-5.9-4.7-16.6-13.7-23.8-20-7.1-6.3-22.2-20.2-33.5-31-11.3-10.8-35.6-35-54-53.8-18.4-18.9-44.1-44.3-57-56.6-12.9-12.2-28.2-26.5-34-31.6-5.8-5.2-17.3-15.1-25.5-21.9-8.3-6.9-22.9-18.5-32.5-25.7-9.6-7.2-24-17.5-32-22.8-8-5.4-21.7-14-30.5-19.3-8.8-5.2-23.7-13.5-33-18.3-9.3-4.9-23.1-11.6-30.5-14.9-7.4-3.4-20.7-9-29.5-12.5-8.8-3.4-23.7-8.8-33-11.8-9.3-3.1-23.3-7.4-31-9.6-7.7-2.1-21-5.5-29.5-7.5-8.5-1.9-24-5.1-34.5-7-10.5-1.9-28.2-4.6-39.5-6-11.3-1.4-28.6-3.3-38.5-4.2-12.9-1.2-32.1-1.7-68-1.9-27.5-0.2-56.1 0.1-63.5 0.5zm-640 768c-7.4 0.5-18.9 1.4-25.5 2-6.6 0.6-19.4 2-28.5 3.1-9.1 1.1-24.6 3.3-34.5 5-9.9 1.6-25.2 4.6-34 6.5-8.8 1.9-24.1 5.7-34 8.4-9.9 2.7-23.6 6.8-30.5 9.1-6.9 2.2-18.8 6.5-26.5 9.4-7.7 2.9-19.4 7.7-26 10.5-6.6 2.9-18.5 8.5-26.5 12.5-8 4-20.6 10.7-28 15-7.4 4.2-20.7 12.5-29.5 18.3-8.8 5.9-22.3 15.6-30 21.6-7.7 6-18.7 15-24.5 20-5.8 5-17.5 16.1-26 24.6-8.6 8.5-21 21.8-27.5 29.5-6.6 7.7-15 17.8-18.6 22.5-3.6 4.7-10.8 14.4-15.9 21.5-5 7.1-12.6 18.4-16.8 25-4.2 6.6-11.4 18.5-16 26.5-4.6 8-12.7 23.3-18.1 34-5.4 10.7-12.4 25.3-15.6 32.5-3.2 7.2-8.8 20.7-12.5 30-3.8 9.3-9.5 24.7-12.8 34-3.3 9.3-8.3 24.4-11 33.5-2.8 9.1-7.1 23.9-9.6 33-2.5 9.1-4.6 17.3-4.6 18.3 0 0.9 0.5 1.7 1 1.7 0.6 0 4.9-5.1 9.7-11.2 4.8-6.2 14.1-17.6 20.7-25.3 6.5-7.7 22.1-24.1 34.5-36.5 12.4-12.4 27.8-26.9 34.1-32.1 6.3-5.3 16.5-13.3 22.5-17.9 6.1-4.5 15.9-11.5 22-15.4 6.1-4 15.5-9.9 21-13.1 5.5-3.2 17.2-9.4 26-13.6 8.8-4.3 21.2-9.8 27.5-12.2 6.3-2.5 17.3-6.3 24.5-8.5 7.2-2.2 18.2-5.1 24.5-6.6 6.3-1.4 15.6-3.2 20.5-4.1 4.9-0.8 15.4-2.2 23.3-3 7.8-0.8 23.5-1.5 35-1.5 11.4 0 25.9 0.5 32.2 1 6.3 0.6 16.2 1.7 22 2.6 5.8 0.8 15.2 2.4 21 3.5 5.8 1.1 15.9 3.3 22.5 4.9 6.6 1.5 17.6 4.7 24.5 7 6.9 2.3 18.6 6.9 26 10.2 7.4 3.3 18.5 8.7 24.5 12 6 3.3 16.4 9.5 23 13.7 6.6 4.1 18.5 12.5 26.5 18.5 8 6 18.5 14.3 23.5 18.5 5 4.2 15.8 13.6 24 21 8.3 7.4 38.2 36.7 66.5 65.1 28.3 28.5 58.9 58.8 68 67.5 9.1 8.7 22.8 21.4 30.5 28.3 7.7 6.9 19.2 16.8 25.5 22.1 6.3 5.3 15.5 12.8 20.5 16.7 5 3.9 14.2 10.9 20.5 15.6 6.3 4.7 18 12.9 26 18.3 8 5.3 21.7 14 30.5 19.3 8.8 5.3 24.1 13.7 34 18.8 9.9 5.1 23.2 11.6 29.5 14.5 6.3 2.8 17.6 7.6 25 10.6 7.4 3 21.4 8.1 31 11.4 9.6 3.3 23.6 7.7 31 9.9 7.4 2.1 18 5 23.5 6.4 5.5 1.4 16.3 3.9 24 5.5 7.7 1.6 20.8 4.1 29 5.6 8.3 1.4 23.5 3.6 34 5 10.5 1.3 28.2 3.2 39.5 4.2 16.5 1.4 31 1.8 73.5 1.8 35 0 58.3-0.4 68.5-1.3 8.5-0.7 23.6-2.2 33.5-3.3 9.9-1.1 25.2-3.1 34-4.5 8.8-1.4 20.7-3.4 26.5-4.5 5.8-1.1 17.3-3.6 25.5-5.5 8.3-1.9 22-5.5 30.5-7.9 8.5-2.4 22-6.6 30-9.3 8-2.7 19.2-6.8 25-9 5.8-2.2 16.3-6.5 23.5-9.6 7.2-3.2 20.9-9.8 30.5-14.7 9.6-4.9 24.3-13 32.5-18 8.3-5 21.1-13.3 28.5-18.5 7.4-5.2 18.2-13.1 24-17.6 5.8-4.6 15.9-13 22.5-18.8 6.6-5.7 18.1-16.5 25.5-24 7.5-7.4 17.5-18 22.4-23.5 4.9-5.5 13.2-15.4 18.5-22 5.3-6.6 14.1-18.3 19.6-26 5.5-7.7 13.6-19.6 18-26.5 4.3-6.9 11.7-19 16.3-27 4.6-8 12.3-22.4 17.2-32 4.8-9.6 11.8-24.2 15.5-32.5 3.7-8.2 9.4-21.7 12.7-30 3.3-8.2 9.1-23.5 12.8-34 3.7-10.5 9.1-26.4 11.8-35.5 2.8-9.1 7.1-23.9 9.6-33 2.5-9.1 4.6-17.3 4.6-18.2 0-1-0.5-1.8-1-1.8-0.5 0-4.9 5.1-9.7 11.3-4.8 6.1-14.1 17.5-20.7 25.2-6.5 7.7-22.1 24.1-34.5 36.5-12.4 12.4-27.8 26.9-34.1 32.1-6.3 5.2-16 12.9-21.5 17.1-5.5 4.2-15.4 11.2-22 15.5-6.6 4.4-16.5 10.6-22 13.8-5.5 3.3-17.7 9.6-27 14.1-9.3 4.5-23.1 10.5-30.5 13.2-7.4 2.8-20 6.9-28 9.2-8 2.2-20.1 5.1-27 6.5-6.9 1.3-17.7 3.1-24 4-6.5 0.9-22.3 1.9-36.5 2.2-15.7 0.4-30 0.1-38.5-0.6-7.4-0.7-18.2-1.9-24-2.7-5.8-0.8-15.2-2.4-21-3.5-5.8-1.1-15.9-3.3-22.5-4.9-6.6-1.5-17.4-4.6-24-6.8-6.6-2.2-17.8-6.6-25-9.7-7.2-3.1-17.3-7.9-22.5-10.7-5.2-2.8-15.1-8.6-22-12.9-6.9-4.3-17.1-11.1-22.7-15.1-5.6-4-15-11.2-21-15.9-5.9-4.7-16.6-13.7-23.8-20-7.1-6.3-22.2-20.2-33.5-31-11.3-10.8-35.6-35-54-53.8-18.4-18.9-44.1-44.3-57-56.6-12.9-12.2-28.2-26.5-34-31.6-5.8-5.2-17.3-15.1-25.5-21.9-8.3-6.9-22.9-18.5-32.5-25.7-9.6-7.2-24-17.5-32-22.8-8-5.4-21.7-14-30.5-19.3-8.8-5.2-23.6-13.5-33-18.3-9.4-4.9-23.1-11.6-30.5-14.9-7.4-3.4-20.7-9-29.5-12.5-8.8-3.4-23.6-8.8-33-11.8-9.4-3.1-23.3-7.4-31-9.6-7.7-2.1-21-5.5-29.5-7.5-8.5-1.9-24-5.1-34.5-7-10.5-1.9-28.2-4.6-39.5-6-11.3-1.4-28.6-3.3-38.5-4.2-12.9-1.2-32.1-1.7-68-1.9-27.5-0.2-56.1 0.1-63.5 0.5z"/></svg>