<svg version="1.2" xmlns="http://www.w3.org/2000/svg" viewBox="0 0 798 782" width="798" height="782"><style>.a{fill:#9a5ffe}.b{fill:#ffd028}</style><path class="a" d="m15 72.3c-1.9 0.7-4.7 2-6.3 3-1.5 0.9-3.9 3.6-5.5 5.9-1.9 3-2.8 5.7-3 9.7-0.3 4.8 0.1 6.5 2.8 11.6 1.8 3.3 13.2 23.6 25.3 45 12.1 21.4 34.5 60.8 49.7 87.5 15.2 26.7 39.4 69 53.7 94 14.3 25 38.2 66.9 53.1 93 14.8 26.1 46.1 81 69.4 122 23.4 41 62.4 109.4 86.7 152 28.2 49.4 45.4 78.6 47.5 80.5 1.8 1.6 5.1 3.6 7.2 4.2 2.1 0.7 5.6 1.3 7.6 1.3 2.1 0 5.6-0.9 7.8-2 2.2-1.1 4.8-3.2 5.9-4.7 1-1.6 9-15.4 17.8-30.8 8.8-15.4 35.2-62 58.5-103.5 23.4-41.5 51.6-91.9 62.8-112 11.1-20.1 36.2-65.1 55.8-100 19.5-34.9 54.4-97.3 77.5-138.5 23.1-41.2 54.9-98.2 70.7-126.5 15.8-28.3 30.6-55.1 32.9-59.5 3.1-6 4.1-9.1 4.1-12.5 0-2.6-1-6.4-2.3-9-1.2-2.4-4-5.7-6.2-7.2-2.2-1.6-5.6-3.1-7.5-3.5-1.9-0.3-6.9 0-11 0.7-4.1 0.6-23.7 4-43.5 7.5-19.8 3.5-57.4 10.2-83.5 15-26.1 4.8-56.4 10.3-67.4 12.3l-19.9 3.7c-2.1 7-5.4 18.2-8.7 29.5-3.2 11.3-6.8 24.2-7.9 28.8-1.2 4.5-2.1 9.5-2.1 11.2 0 1.9 0.9 3.9 2.5 5.5 2 2 3.5 2.5 7.5 2.5 2.7 0 11-1.1 18.2-2.5 7.3-1.3 22.5-4.3 33.8-6.5 11.3-2.3 23.6-4.4 27.5-4.7 6.4-0.5 7.2-0.4 9.7 1.8 1.4 1.3 2.9 3.7 3.3 5.4 0.5 2.6-13.1 30.3-92.4 189-51.2 102.3-100 199.7-108.6 216.5-8.6 16.8-18.8 36.5-22.8 43.9-4 7.5-8.5 14.5-10.2 15.9-2.3 1.8-3.7 2.3-6 1.8-1.6-0.3-4-1.7-5.3-3.1-1.4-1.6-2.2-3.8-2.2-6.2 0-2.1 1.5-11.7 3.4-21.3 1.9-9.6 10-49.1 18-87.8 8-38.6 14.6-71.1 14.6-72.2 0-1.1-1.5-3.7-3.4-5.7-3-3.4-4-3.8-7.8-3.6-2.4 0.1-10.6 2.1-18.3 4.6-7.7 2.4-18.7 5.7-24.5 7.2-9.4 2.5-10.8 2.6-13.4 1.4-1.6-0.8-3.8-2.5-4.8-3.9-1.9-2.5-1.9-2.7 9.6-60.7 6.4-32.1 11.6-59.7 11.6-61.3q0-3-3-6c-1.6-1.6-3.8-3-4.8-3-0.9 0-8 1.3-15.7 2.9-7.7 1.7-21.6 4.8-31 7-9.4 2.2-21.7 5-27.5 6.1-9.8 2.1-10.7 2.1-13.8 0.6-1.7-0.9-3.7-2.6-4.4-3.8-0.8-1.6-0.9-6.8-0.4-17.8 0.3-8.5 1.8-34.2 3.1-57 1.4-22.8 3.8-65.1 5.5-94 2.4-41.7 2.7-52.7 1.8-53.2-0.7-0.4-2.2-0.8-3.3-0.8-1.1 0-7.6-1.1-14.5-2.4-6.9-1.4-19.3-3.6-27.5-5.1-8.3-1.4-19.5-3.5-25-4.5-5.5-1.1-21.9-4-36.5-6.5-14.6-2.6-41.6-7.3-60-10.6-18.4-3.3-44.5-7.9-58-10.4-13.5-2.4-28.7-5.1-33.8-5.9-5-0.9-9.3-1.6-9.5-1.6-0.1 0.1-1.8 0.6-3.7 1.3z"/><path class="b" d="m534 7.1c-19 3.8-57.4 11.4-85.5 17-28.1 5.5-71.3 14.1-96 19-24.8 5-45.3 9.3-45.7 9.7-0.4 0.4-1.6 17.1-2.8 37.2-1.1 20.1-4.1 70.3-6.5 111.5-2.5 41.3-5.2 86.7-6 101-0.9 14.3-1.4 26.6-1.1 27.3 0.5 0.9 1.8 0.9 6.4-0.4 3.1-0.9 10.4-2.7 16.2-4 5.8-1.3 19.9-4.5 31.5-7 13.8-3 22.6-4.5 25.5-4.2 2.5 0.2 6.6 1.6 9.3 3.1 2.7 1.6 6 4.7 8 7.4 3 4.5 3.2 5.3 3.1 13.3-0.1 6.5-2.5 20.3-10.3 58.8-5.5 27.6-10.1 50.4-10.1 50.7 0 0.3 2.8-0.3 6.3-1.4 3.4-1 12.7-3.8 20.7-6.1 10.4-3.1 16.2-4.3 20.5-4.3 3.3 0.1 7.6 0.8 9.5 1.6 1.9 0.8 5.2 3.2 7.3 5.3 2.1 2.1 4.4 5 5.2 6.4 0.7 1.4 1.6 4.3 1.9 6.5 0.5 2.9-0.7 10.9-4.3 29-2.7 13.7-9.3 46.1-14.6 72-5.3 25.9-9.4 47.5-9.2 48 0.2 0.5 11.4-20.8 24.9-47.5 13.6-26.7 60.3-119.9 104-207.2 43.6-87.3 79.1-158.9 78.8-159.2-0.3-0.2-12.6 2-27.5 4.9-14.9 2.9-31.8 6.1-37.7 6.9-6 0.9-12 1.3-13.5 1-1.6-0.4-4.4-1.5-6.3-2.5-1.9-0.9-4.9-3.2-6.6-5.1-1.8-1.8-3.9-4.8-4.8-6.6-0.9-1.8-1.6-5.7-1.6-9 0-3.6 1.5-11.2 4.1-20.7 2.2-8.3 6.8-24.2 10-35.5 3.3-11.3 12.5-43.1 20.4-70.8 8-27.6 14.5-50.9 14.5-51.7 0-0.8-0.8-1.5-1.7-1.4-1 0.1-17.3 3.2-36.3 7z"/></svg>