<svg version="1.2" xmlns="http://www.w3.org/2000/svg" viewBox="0 0 701 696" width="701" height="696"><style>.a{fill:#0065a9}.b{fill:#007acc}.c{fill:#1f9cf0}</style><path class="a" d="m676.3 73.8l-144.2-69.5c-4-1.9-8.4-3.2-12.8-3.8-4.5-0.7-9-0.6-13.4 0.1-4.4 0.8-8.7 2.2-12.7 4.3-4 2.1-7.7 4.7-10.8 7.9l-471.9 430.2c-2.8 2.6-5.1 5.7-6.8 9.1-1.6 3.5-2.5 7.2-2.7 11.1-0.2 3.8 0.4 7.6 1.6 11.2 1.3 3.6 3.3 6.9 5.9 9.8q0.9 1 1.9 1.9l38.5 35c2.5 2.3 5.4 4.1 8.5 5.4 3.2 1.3 6.5 2 9.9 2.2 3.3 0.1 6.7-0.3 9.9-1.3 3.3-1 6.3-2.6 9-4.7l568.4-430.9c4.2-3.3 9.4-5.3 14.7-5.8 5.4-0.5 10.8 0.5 15.6 2.9 4.8 2.4 8.9 6.1 11.8 10.6 2.8 4.6 4.3 9.9 4.3 15.3v-1.7c0-4.1-0.6-8.1-1.7-12.1-1.1-3.9-2.8-7.7-5-11.1-2.2-3.5-4.8-6.6-7.9-9.4-3-2.7-6.5-5-10.1-6.8z"/><path class="b" d="m676.3 622.3l-144.2 69.4c-4 1.9-8.4 3.2-12.8 3.9-4.5 0.6-9 0.5-13.4-0.2-4.4-0.8-8.7-2.2-12.7-4.3-4-2-7.6-4.7-10.8-7.9l-471.9-430.2c-2.8-2.6-5.1-5.7-6.8-9.1-1.6-3.5-2.5-7.2-2.7-11.1-0.2-3.8 0.4-7.6 1.6-11.2 1.3-3.6 3.3-6.9 5.9-9.8q0.9-1 1.9-1.9l38.5-35c2.6-2.3 5.4-4.1 8.6-5.4 3.1-1.3 6.4-2 9.8-2.2 3.4-0.1 6.8 0.3 10 1.3 3.2 1 6.3 2.6 8.9 4.6l568.3 431.1c4.3 3.2 9.5 5.2 14.8 5.7 5.4 0.5 10.8-0.5 15.6-2.9 4.8-2.4 8.9-6.1 11.8-10.6 2.8-4.6 4.3-9.9 4.3-15.3v1.8c0 4.1-0.6 8.1-1.7 12.1-1.2 3.9-2.9 7.6-5 11.1-2.2 3.4-4.9 6.6-7.9 9.3-3.1 2.7-6.5 5-10.1 6.8z"/><path class="c" d="m532.1 691.7c-4 1.9-8.4 3.2-12.8 3.9-4.5 0.6-9 0.5-13.4-0.2-4.4-0.8-8.7-2.2-12.7-4.3-4-2-7.6-4.7-10.8-7.9 3.6 3.6 8.1 6 13.1 6.9 4.9 1 10 0.5 14.7-1.4 4.7-2 8.6-5.3 11.5-9.4 2.8-4.2 4.3-9.2 4.3-14.2v-634.2c0-5.1-1.5-10-4.3-14.2-2.8-4.3-6.8-7.5-11.5-9.5-4.7-1.9-9.8-2.4-14.8-1.4-5 1-9.5 3.4-13.1 7 3.2-3.2 6.8-5.8 10.8-7.9 4-2.1 8.3-3.5 12.7-4.3 4.4-0.7 8.9-0.8 13.4-0.2 4.4 0.7 8.8 2 12.8 3.9l144.1 69.3c3.7 1.8 7.2 4.1 10.2 6.8 3.1 2.7 5.8 5.9 7.9 9.3 2.2 3.5 3.9 7.2 5.1 11.2 1.1 3.9 1.7 8 1.7 12.1v470c0 4.1-0.6 8.2-1.7 12.1-1.1 3.9-2.8 7.7-5 11.2-2.2 3.4-4.8 6.6-7.9 9.3-3.1 2.7-6.5 5-10.2 6.8z"/></svg>