<svg version="1.2" xmlns="http://www.w3.org/2000/svg" viewBox="0 0 231 238" width="231" height="238"><style>.a{fill:#00adef}</style><path class="a" d="m223.1 111.6h-96.7c-4.4 0-7.4-3-7.4-7.5v-79.6c0-3.7 3-6.7 5.9-7.4l96.7-17.1c2.3 0 4.5 0 6 1.5 2.2 1.5 3 3.7 3 5.9v96.7c0 4.5-3 7.5-7.5 7.5z"/><path class="a" d="m96.7 111.6h-89.3c-4.4 0-7.4-3-7.4-7.5v-59.5c0-3.7 3-6.7 5.9-7.4l89.3-14.9c2.2 0 4.5 0 5.9 1.5 2.3 1.5 3 3.7 3 5.9v74.4c0 4.5-3 7.5-7.4 7.5z"/><path class="a" d="m223.1 238c-0.7 0-0.7 0-1.5 0l-96.7-17.1c-3.7-0.8-5.9-3.7-5.9-7.4v-79.6c0-4.5 3-7.5 7.4-7.5h96.7c4.5 0 7.5 3 7.5 7.5v96.7c0 2.2-0.8 4.4-3 5.9-0.8 0.8-3 1.5-4.5 1.5z"/><path class="a" d="m96.7 215.7c-0.8 0-0.8 0-1.5 0l-89.3-14.9c-2.9-0.7-5.9-3.7-5.9-7.4v-59.5c0-4.5 3-7.5 7.4-7.5h89.3c4.4 0 7.4 3 7.4 7.5v74.3c0 2.3-0.7 4.5-3 6-0.7 0.7-2.9 1.5-4.4 1.5z"/></svg>