<svg version="1.2" xmlns="http://www.w3.org/2000/svg" viewBox="0 0 515 528" width="515" height="528"><style>.a{fill:#0a23a9}.b{fill:#09c7e8}</style><path class="a" d="m91.5 5.5c-6.5 1.6-18.5 6.2-26.6 10.3-10.5 5.3-19.3 12-30.2 23-10.8 10.9-17.7 20.2-23.1 30.9-5.3 10.4-8.3 19.9-9.6 29.6-1 7.9-1.9 20.8-1.9 28.6-0.1 7.9 1.3 19.9 3.1 26.6 1.7 6.8 6.6 18.7 10.7 26.6 4.5 8.5 12.9 19.7 20.8 27.7 9.8 9.8 17.9 15.7 30.7 21.9 10.8 5.3 23.9 9.8 34.7 11.9 11 2.1 21.5 2.9 28.6 2.1 6.2-0.7 17.3-3.2 24.6-5.6 7.3-2.3 18.7-7.1 25.3-10.7 6.6-3.5 18.5-12.9 26.4-20.8 7.9-7.8 16.4-17.5 18.8-21.4 2.5-3.9 6.9-13.8 9.9-22 3.5-9.5 5.8-21.1 6.7-32.7 0.7-10.3 0.3-23.1-1.1-30.1-1.2-6.8-6.2-20.6-11.1-30.7-6-12.2-12.6-22.2-20-29.8-6-6.2-16.1-14.7-22.2-18.9-6.2-4.1-19.1-10.2-28.6-13.6-14.6-5.1-20.4-6.1-35.8-5.9-10.1 0-23.7 1.4-30.1 3z"/><path class="b" d="m363.8 3c-5.1 1.4-18.8 8.9-30.5 16.7-11.8 7.8-25.3 18.8-30.2 24.5-4.9 5.6-12 16.2-15.7 23.5-3.8 7.3-7.9 16.5-9.2 20.4-1.2 3.9-3.6 20-5.2 35.8-1.7 15.7-5 35-7.5 42.9-2.4 7.8-7 19.8-10.3 26.5-3.2 6.8-10.7 18.3-16.7 25.6-5.9 7.3-17.2 18.2-25 24.2-7.8 6-20.7 14-28.6 17.9-7.8 3.8-23 8.8-33.7 11.2-15 3.3-23.8 4.1-38.8 3.3-13.3-0.7-24.8-2.7-36.8-6.5-9.5-3.1-21-7.4-25.5-9.6-4.5-2.2-9-3.3-10-2.3-0.9 0.9 1.1 5.8 4.4 10.8 3.4 5.1 11.6 15.7 18.2 23.5 6.7 7.9 18.9 20.1 27.3 27.2 8.4 7 18.2 14.6 21.9 16.8 6.6 4 6.7 4 13.3 0 3.6-2.3 8.7-4.1 11.2-4.1 2.5 0 15 4 27.6 9 12.6 5 28.5 10.7 35.3 12.8 10.3 3.1 19.4 3.7 57.2 3.7 41.3 0 46.3-0.4 61.3-4.8 9-2.7 23.7-8.1 32.7-12.1 9-4 20.5-7.7 25.5-8.2 6.9-0.7 10 0 12.3 2.5 1.7 1.9 4.9 3.3 7.1 3.2 2.3-0.1 10.1-4.6 17.4-10.1 7.3-5.4 20.2-17.1 28.7-25.9 8.5-8.9 20.4-23.5 26.4-32.4 6.1-9 15.9-26.5 21.8-38.9 5.9-12.3 13.8-33 17.5-46 6.1-21.2 6.8-26.5 7.3-55.1 0.5-27.5 0-33.3-3.6-44-2.3-6.7-6.9-17.1-10.2-23-3.4-5.9-11.9-16.8-18.9-24.2-7-7.4-17.9-16.5-24-20.2-6.2-3.7-17.9-9.1-26.1-12-12.7-4.6-17.9-5.4-36.8-5.2-12.1 0.1-26.1 1.3-31.1 2.6z"/><path class="a" d="m138 355.1c-1 0.7-1.6 12-1.4 25.1 0.3 13 1.2 31.9 2.2 42 1.4 15.1 3.2 21.6 9.9 35.8 6.3 13.2 11.9 21.1 23.3 32.9 11.6 12.1 18.4 17.2 30.3 22.8 8.4 4 20.9 8.8 27.6 10.8 9.4 2.7 16.9 3.3 31.7 2.5 14.5-0.8 23.5-2.6 35.7-7.1 9-3.3 20.5-8.8 25.6-12.2 5-3.4 14.9-12.4 22-19.8 8.1-8.6 15.3-19 19.8-28.4 3.8-8.1 8-19.2 9.2-24.5 1.2-5.3 2.8-25.3 3.7-44.3 1.3-29.9 1.1-34.8-1.6-35.9-1.7-0.7-9.5 1.6-17.3 5.1-7.9 3.5-20.3 8.2-27.6 10.4-7.3 2.2-21.1 5.3-30.7 6.9-9.5 1.5-25.6 3.4-35.8 4.1-14.2 1.1-24.3 0.4-44.9-3-17.4-2.9-34.7-7.5-50.1-13.2-12.9-4.8-24.9-9.3-26.6-10.1-1.8-0.7-4-0.7-5 0.1z"/></svg>