<svg version="1.2" xmlns="http://www.w3.org/2000/svg" viewBox="0 0 5552 1099" width="5552" height="1099"><style></style><path  d="m673.6 12.4c-0.4 1.9-1.3 3.9-2.1 4.6-0.8 0.7-1.5 1.6-1.5 2.1 0 0.8-6.1 13.8-18 38.4-3.2 6.6-8.9 18.5-12.8 26.5-3.8 8-10.8 22.4-15.5 32-4.7 9.6-10.8 22.4-13.7 28.5-7.9 16.7-11.2 23.7-18.9 39.5-3.8 8-7.5 15.6-8 17-0.6 1.4-1.5 3.2-2 4-1.1 1.9-13.3 27.1-29.1 60.5-4 8.2-10.8 22.4-15.2 31.5-4.5 9.1-10.7 21.9-13.8 28.5-7.7 16-18.8 38.9-29.7 61.5-12.9 26.5-22.1 45.7-25.1 52-4.3 9.2-14 29.4-24.8 51.5-5.6 11.5-13.7 28.2-17.9 37-14.1 29.4-19.2 39.9-28.3 58.5-9.6 19.7-17.3 35.9-25.4 53-5 10.6-16 33.4-18.3 38-0.7 1.4-2 3.8-2.9 5.5-0.8 1.6-4 8.2-7 14.5-2.9 6.3-7.8 16.7-10.9 23-8.6 18.1-13.1 27.6-19.2 40.5-3.1 6.6-7.1 15.1-9 19-8.3 17.1-15.8 33-21.5 45-11 23.1-15.1 31.8-21 44-3.2 6.6-7.9 16.5-10.5 22-4.9 10.4-8.7 18.5-17.5 37-2.9 6-7.2 15.3-9.7 20.5-2.5 5.2-7.2 15-10.4 21.7-13.7 28.4-26.3 54.8-30.9 64.8-1.8 3.8-7.1 14.9-11.7 24.5-8.9 18.3-10.5 23.1-8.2 24.6 1.9 1.2 34.9 2.3 99.9 3.3 30 0.5 56.3 1.1 58.5 1.4 9.2 1.2 107.1 2 109.1 0.9 1.9-1 3.2-3.5 7-13.5 0.9-2.3 2.3-5.7 3.1-7.4 2.9-6.9 4.2-10.1 7.3-17.8 1.8-4.4 3.8-9.4 4.5-11 1.5-3.4 6.9-17 9.2-23 0.9-2.2 2.1-5.4 2.8-7 0.8-1.7 2.7-6.5 4.4-10.8 6.6-16.4 9.4-23.4 12.2-30.1 1.6-3.8 2.9-7.2 2.9-7.7 0-0.5 1.3-3.7 2.8-7.1 1.6-3.5 3.7-8.3 4.7-10.8 0.9-2.5 2.1-5.4 2.6-6.5 0.4-1.1 1.8-4.5 2.9-7.5 1.2-3 2.7-6.9 3.4-8.5 0.8-1.7 2.1-5 3.1-7.5 1-2.5 2.3-5.9 3-7.5 1.5-3.5 7-17.2 9.2-23 1.9-5 4.1-10.1 5.9-13.8 0.8-1.6 1.4-3.5 1.4-4.4 0-0.8 0.6-2.7 1.4-4.1 0.8-1.5 2.8-6.3 4.6-10.7 1.8-4.4 4-9.8 5-12 1-2.2 3-7.2 4.5-11 1.5-3.9 3.3-8.4 4-10 0.7-1.7 2.7-6.5 4.4-10.8 1.7-4.2 4.5-11.2 6.2-15.5 1.7-4.2 3.8-9.5 4.6-11.7 0.9-2.2 2.1-5.4 2.8-7 2.9-6.8 3.5-8.2 5.5-13.5 4.3-10.8 8.2-20.5 9.5-23.5 0.7-1.7 2-5 3-7.5 1.8-4.5 3-7.4 5.8-14 0.9-1.9 2.9-6.9 4.5-11 8.5-21.1 13.6-33.9 15.2-38 0.9-2.5 2.7-7 3.9-10 1.3-3 3.6-8.8 5.2-12.8 7.6-19 11.3-28 13.4-32.7 0.7-1.7 2.1-5 3-7.5 1-2.5 2.3-5.9 3-7.5 0.8-1.7 2.7-6.5 4.4-10.8 1.7-4.2 4.5-11.1 6.1-15.2 1.7-4.1 4.4-11 6.1-15.3 1.7-4.2 3.5-8.4 4-9.2 0.5-0.8 1.3-2.5 1.9-3.8 1.4-3.3 4.1-2.5 6.4 1.9 0.7 1.3 3.9 7.3 7.1 13.4 3.2 6 6.7 12.7 7.7 14.8 1.1 2.1 2.5 4 3.3 4.4 0.8 0.3 6.1 0 11.7-0.7 13-1.5 43.2-1.6 56.3-0.1 21.9 2.6 45.7 8.8 67 17.6 8.6 3.5 24.8 12.4 35.3 19.1 27.5 18 48.4 39.1 66.4 67.2 4.9 7.7 12.2 22.4 16.2 32.9 0.9 2.4 2.3 6 3.1 8 2.6 6.8 6.8 23.5 8.6 34.3 2.1 11.8 1.8 54.2-0.4 66-4.2 23.4-9.7 39.9-20.8 62.3-6.3 12.6-5.9 12-12.3 21.7-11.7 17.7-35.5 43.7-50.8 55.2-3.8 2.9-7.1 6.3-7.4 7.6-0.4 1.2 0.1 4.4 1 7 1 2.6 2.1 6.2 2.6 8.1 0.5 1.8 1.3 3.8 1.9 4.4 0.6 0.6 1.1 1.9 1.1 2.9 0 0.9 0.6 3.2 1.4 5 1.7 4.2 3.5 9.4 4.6 13.3 0.5 1.6 1.4 4.6 2.1 6.5 0.6 1.9 1.7 5.1 2.4 7 0.7 1.9 1.8 5.1 2.4 7 0.7 1.9 1.6 4.8 2.1 6.5 0.5 1.6 1.4 4.6 2.1 6.5 0.6 1.9 1.7 5.1 2.4 7 0.7 1.9 1.8 5.1 2.4 7 0.7 1.9 1.7 4.8 2.1 6.5 2.5 8.7 9.4 27.2 10.7 28.7 1.5 1.7 10.7 1.8 166.8 1.8 117.6 0 165.4-0.3 166.2-1.1 1.1-1.1 0.9-61.1-0.3-82.4-0.3-5.5-0.9-42.2-1.4-81.5-0.4-39.3-1.2-93.1-1.8-119.5-0.5-26.4-1.2-65.3-1.4-86.5-0.3-40.3-0.2-41.4 4.3-52.5 0.4-1.1 1.2-3.6 1.8-5.5 0.5-1.9 1.9-6 3.1-9 1.2-3 2.4-6.4 2.7-7.5 0.3-1.1 1.1-3.4 1.8-5 0.8-1.7 3-7.1 5-12 6.6-16.1 21.4-46.6 26.6-55 1.4-2.2 2.9-4.7 3.2-5.5 0.4-0.8 1.6-2.9 2.7-4.5 1.1-1.7 2.4-3.9 2.9-5 0.5-1.1 2-3.6 3.3-5.5 1.3-1.9 2.7-4.2 3.1-5 4.2-8.5 32.1-47.3 44.1-61.5 10.7-12.5 28.7-32.2 35-38.2 5.4-5 6.6-6.8 6.6-9.3 0-3.9-2.3-4.8-6.4-2.5-4.1 2.4-21 13.4-59.6 39.1-17.3 11.5-31.9 21.1-32.4 21.3-0.5 0.2-5.7 3.6-11.6 7.5-5.9 3.9-11.4 7.5-12.2 8.1-0.9 0.5-6 4-11.4 7.6-5.5 3.6-20 13.2-32.4 21.4-12.4 8.1-24.2 15.9-26.3 17.4-2.1 1.4-4.5 3-5.4 3.6-0.9 0.5-8.6 5.6-17.1 11.2-8.5 5.7-15.6 10.3-15.8 10.3-0.1 0-11.7 7.6-25.6 16.9-36.7 24.4-55.2 36.5-56.3 37-0.5 0.2-2.6 1.7-4.6 3.2-2 1.6-3.9 2.9-4.3 2.9-0.3 0-4 2.4-8.1 5.2-4.2 2.9-8.4 5.8-9.3 6.3-0.9 0.6-6 3.9-11.1 7.3-5.2 3.4-10.2 6.1-11 6-1.5-0.3-14.9-26.6-44.5-87.3-7.6-15.4-14.1-28.7-14.6-29.5-1.4-2.5-13.3-26.5-21-42.5-4-8.3-16.1-33-27-55-10.9-22-24.6-49.9-30.5-62-5.9-12.1-11.5-23.6-12.6-25.5-1.9-3.5-3.9-7.6-26.6-54-20.7-42.2-49.3-100.2-51.6-104.5-1.1-2.2-2.4-4.7-2.8-5.5-2-4.3-33.2-67.6-50.1-102-37.2-75.2-43.8-88.9-43.8-89.9 0-0.6-1.7-1.1-3.9-1.1-3.6 0-3.9 0.2-4.5 3.4z"/><path  d="m787.9 25.1l-2.2 2.2 0.7 88.6c0.4 48.7 1.1 89 1.6 89.5 0.9 0.9 94.5 2.4 158.2 2.5 21.3 0.1 38.9 0.5 39.2 1 0.3 0.5 0.7 91.7 0.8 202.8 0.3 215.1 0.1 205.3 4.8 205.3 1 0 6.6-3.3 12.5-7.3 5.9-3.9 11.4-7.7 12.3-8.2 1-0.6 3.3-2.2 5.3-3.8 2-1.5 4-2.7 4.3-2.7 0.3 0 3.5-2 7.2-4.5 3.6-2.5 6.7-4.5 6.9-4.5 0.9 0 11.1-7.4 11.8-8.6 0.5-0.8 0.8-64.8 0.7-142.3 0-120.2 0.2-141 1.4-142 0.9-0.8 5.8-1.1 15.7-0.9l14.4 0.3 0.7 129.3c0.3 71.1 0.9 129.9 1.2 130.7 0.8 2.3 3.5 0.9 22.6-11.9 9.5-6.4 17.5-11.6 17.9-11.6 0.3-0.1 1.7-1 3-2l2.4-2-0.2-60.8c-0.1-33.4 0.1-61.5 0.4-62.5 0.6-1.5 2.3-1.7 14.1-1.7h13.4v52c0 42.6 0.2 52.2 1.3 52.6 1.1 0.4 18.1-9.9 22.4-13.6 0.7-0.5 1.5-1 1.9-1 0.3 0 2.3-1.4 4.4-3 2.1-1.7 4.1-3 4.5-3 0.4 0 2.4-1.4 4.5-3 2.1-1.7 4-3 4.3-3 0.9 0 10.1-6.3 10.9-7.4 0.4-0.6 0.8-59.7 0.8-131.4 0-71.6 0.1-130.3 0.3-130.4 0.1-0.2 45-0.5 99.7-0.8l99.5-0.5 0.3-88.5c0.1-48.7 0-89.5-0.3-90.7-1.4-5.7 20.7-5.3-315-5.3h-308.5z"/><path  d="m233.3 211c-4.6 0.5-8.8 1.2-9.4 1.6-0.7 0.4-3.9 1.3-7.3 2-14.8 3-30 9.2-45.1 18.2-10.5 6.3-28.7 21.1-34.2 27.9-2.1 2.5-4.5 5.3-5.3 6.2-2.8 2.9-11 13.9-11 14.7 0 0.4-0.6 1.5-1.4 2.3-1.7 1.9-12.5 22.5-13.7 26.1-0.4 1.4-1.9 5.6-3.3 9.5-1.4 3.8-2.6 8-2.6 9.3 0 1.3-0.5 3.2-1.1 4.3-2.7 5.2-5.2 34.2-3.9 46.9 1.5 15.6 2.8 24.8 3.6 26.2 0.4 0.7 1.1 3 1.5 5.3 0.4 2.2 1.3 5.6 1.9 7.5 2 5.4 7.1 18.3 8 20.1 9 17.5 16.7 28.4 30 42.3 7.4 7.7 24.6 21.9 29 23.9 0.8 0.4 3.8 2.1 6.5 3.7 5.8 3.5 13 7 19.5 9.5 2.5 1 5.4 2.1 6.5 2.6 3 1.4 11.9 3.6 23 5.9 13.1 2.7 43 3 56.3 0.5 9.5-1.7 17.9-4 23-6.1 1.8-0.8 4-1.4 4.8-1.4 0.9 0 2.8-0.6 4.2-1.3 1.5-0.8 6.1-3.1 10.2-5.1 4.1-2.1 8.9-4.6 10.5-5.7 1.7-1 3.7-2.2 4.5-2.6 3.9-1.7 18.4-13.4 26.3-21.2 22.6-21.9 39.9-53.1 44.7-80.6 0.5-2.8 1.4-7.5 1.9-10.5 1.3-7.4 1.3-39.1 0.1-46.5-2.6-14.9-4.7-23.1-8-31.5-1.2-3-2.4-6.3-2.7-7.4-0.6-2-6.4-13.2-9.4-18.1-1.1-1.7-2.3-3.9-2.9-5-0.5-1.1-2.3-3.8-3.9-6-1.7-2.2-3.8-5.1-4.8-6.5-7.1-10.3-23.3-25.7-36.4-34.5-9.2-6.2-9.7-6.5-18.9-11-4.1-2-8.8-4.3-10.3-5.1-1.6-0.7-3.6-1.4-4.6-1.4-0.9 0-2.1-0.4-2.7-0.9-1-1-10.5-3.8-17.5-5.1-2.6-0.5-6.4-1.3-8.5-2-5.1-1.4-36.6-2.1-47.1-1z"/><path  d="m737.5 622.6c-11.4 1-23.5 2.7-27.5 3.9-2.5 0.7-7.2 2.1-10.5 3.1-7.2 2.1-14.1 4.8-23.5 9.3-18.5 8.9-42.4 28.6-55.1 45.6-9.7 12.9-19.6 31.4-23.9 44.5-3.7 11.5-3.9 12.4-5.7 20.5-2.4 11-2.4 54.2 0 65.5 3.7 17.3 11.5 37.1 19.5 49.5 0.6 1.1 1.5 2.7 1.9 3.5 1.7 3.7 16.6 22.3 22.9 28.5 8.6 8.4 24.7 20.4 32.8 24.6 2.3 1.1 5.5 2.9 7.3 3.9 1.7 1 5.6 2.9 8.5 4.1 2.9 1.1 6.7 2.7 8.3 3.4 1.7 0.7 5.5 2 8.5 2.8 3 0.9 7.3 2.1 9.5 2.7 17.6 4.9 52.8 5.1 71 0.4 10.6-2.7 20-5.7 21-6.5 0.5-0.5 1.5-0.9 2.2-0.9 3.6 0 31.9-15.6 36.3-20 0.3-0.3 3.1-2.5 6.2-4.9 7-5.3 22.3-21.1 26.8-27.7 1.9-2.7 4.9-7.2 6.8-9.9 4.2-6.1 13.4-25.1 15.7-32.5 1-3 2.4-7 3.1-8.8 0.8-1.8 1.4-4.2 1.4-5.3 0-1.1 0.5-2.9 1-3.9 1.5-2.8 4.3-26.3 4.3-36 0-8.9-2.5-30.4-4.1-35.5-0.6-1.7-2-6.6-3.2-11-1.3-4.4-2.6-8.7-3-9.5-0.4-0.8-1.4-3.1-2.2-5-2.6-5.9-8.8-18.3-10.8-21.5-1.1-1.7-2.3-3.7-2.7-4.5-3.5-7.6-24.3-30.4-35.3-38.6-3.6-2.6-6.7-5.1-7-5.4-0.8-0.8-6.4-4.6-8-5.3-0.8-0.4-2.8-1.6-4.5-2.6-3-1.9-8.7-4.8-15.5-7.8-1.9-0.9-4.2-1.9-5-2.3-1.7-0.7-12.4-4-21-6.4-10.1-2.8-35.3-5-46.5-4z"/><path  d="m1870.1 809h138.9l-194.9-538.7h-152l-194.9 538.7h137.4l32.2-95.2h201.1zm-66-196.4h-132.8l66-197.2zm202.6-17.7c0 135.9 89 220.3 214.9 220.3 107.4 0 183.4-62.2 205.6-161.2h-139.6c-11.5 31.5-32.3 49.1-68.3 49.1-46.8 0-79.1-36.8-79.1-108.2 0-71.3 32.3-108.2 79.1-108.2 36 0 57.5 19.2 68.3 49.1h139.6c-22.2-102-98.2-161.1-205.6-161.1-125.9 0-214.9 85.2-214.9 220.2zm429 0c0 135.9 89 220.3 214.8 220.3 107.5 0 183.4-62.2 205.7-161.2h-139.7c-11.5 31.5-32.2 49.1-68.3 49.1-46.8 0-79-36.8-79-108.2 0-71.3 32.2-108.2 79-108.2 36.1 0 57.6 19.2 68.3 49.1h139.7c-22.3-102-98.2-161.1-205.7-161.1-125.8 0-214.8 85.2-214.8 220.2zm877.8-214.1h-131.2v232.6c0 58.3-32.2 90.5-82.9 90.5-49.1 0-82.1-32.2-82.1-90.5v-232.6h-130.4v250.2c0 114.3 66.7 182.6 165.7 182.6 57.6 0 103.6-26.1 129.7-62.9v58.3h131.2zm190.4 229.5c0-73.7 36-95.2 98.2-95.2h36v-138.9c-57.5 0-104.3 30.7-134.2 76v-71.4h-131.3v428.2h131.3zm135.8-16.1c0 135.1 83.6 221 188 221 63.7 0 108.9-29.1 132.7-66.7v60.6h131.3v-428.2h-131.3v60.6c-23-37.6-68.3-66.8-132-66.8-105.1 0-188.7 84.5-188.7 219.5zm320.7 0.8c0 68.3-43.7 105.9-93.6 105.9-49.1 0-93.6-38.4-93.6-106.7 0-68.3 44.5-105.1 93.6-105.1 49.9 0 93.6 37.6 93.6 105.9zm162-219.5h142.7v433.6h131.2v-433.6h142.7v-105.1h-416.6zm421.2 218.7c0 135 83.7 221 188 221 63.7 0 109-29.2 132.8-66.8v60.6h131.2v-428.1h-131.2v60.6c-23-37.6-68.3-66.8-132-66.8-105.1 0-188.8 84.4-188.8 219.5zm320.8 0.7c0 68.3-43.7 105.9-93.6 105.9-49.1 0-93.6-38.3-93.6-106.6 0-68.3 44.5-105.1 93.6-105.1 49.9 0 93.6 37.6 93.6 105.8zm444.3 214.1h147.3l-147.3-212.5 143.5-215.6h-142l-69 118.1-82.1-118.1h-147.4l145.1 209.4-141.2 218.7h141.9l69.1-118.9z"/></svg>