<svg version="1.2" xmlns="http://www.w3.org/2000/svg" viewBox="0 0 5552 1099" width="5552" height="1099"><style>.a{fill:#0d0d0d}</style><path fill-rule="evenodd" d="m-32 0h2290v1099h-2290zm1134.3 151.3c-1.9 1-3.9 3.1-4.7 4.9-0.8 1.8-1.9 9.4-2.5 16.8-0.7 9.8-2 17-4.6 26.5-1.9 7.1-3.5 13.9-3.5 15 0 1.1-1.3 6.3-2.9 11.5-1.5 5.2-3.2 11.1-3.5 13-0.4 1.9-2 8.4-3.6 14.5-1.6 6-4.5 16.9-6.5 24-1.9 7.1-3.5 15.2-3.5 18 0 2.8 0.6 5.9 1.4 7 1.4 1.9 2.8 2 32.3 2.3 16.9 0.2 32.6 0.1 34.8-0.3 3.9-0.5 4.1-0.8 11.6-13.8 4.2-7.3 12.4-22.4 18.2-33.7 5.8-11.3 17.3-34.4 25.5-51.5 8.2-17.1 16.2-34.6 17.7-39 2.3-6.6 2.6-8.7 1.9-11.9-0.7-3-1.8-4.5-4.4-6-3.3-2-5.1-2.1-39.5-2.3-29.4-0.1-38.3 0.2-48.5 1.6-6.9 1-14 2.5-15.7 3.4zm-478.8 203.5c-5.5 4.8-17.2 15-26 22.7-8.8 7.7-20 17.9-25 22.6-4.9 4.8-10.2 10.5-11.7 12.8-2.6 3.8-2.7 4.3-1.4 6.8 0.7 1.6 11.2 14.3 23.2 28.3 12.1 14 25.3 29.1 29.4 33.5 4.2 4.4 11.2 12.1 15.6 17 4.4 4.9 11.4 13 15.4 18 4.1 5 11.3 13 15.9 18 4.6 5 14.6 16.4 22 25.3 7.5 9 14.6 18 15.8 20 1.3 2.1 2.3 4.4 2.3 5.2 0 0.8-1.2 3.4-2.8 5.6-1.5 2.3-9.2 11.9-17.2 21.4-8 9.5-22.8 26.9-33 38.7-10.2 11.8-22.7 26.7-27.9 33.2-5.1 6.4-13.7 16.5-19 22.5-5.3 6-12 13.7-15 17-2.9 3.4-8.8 10.6-13.1 16.1-4.2 5.5-9.6 12.9-11.9 16.5-4 6-4.2 6.7-3 8.8 0.8 1.3 7 7.8 13.9 14.5 6.9 6.7 18.6 17.6 26 24.2 7.4 6.7 17 15.1 21.3 18.8 4.2 3.7 8.7 7.2 10 7.8 1.2 0.6 3.4 0.8 5 0.5 1.5-0.3 5.2-3 8.3-5.9 3.1-2.8 11.1-11.7 17.8-19.7 6.7-8 16.4-19.9 21.7-26.5 5.2-6.6 21.9-27.5 37.1-46.5 15.1-19 30.4-38.5 33.9-43.5 3.4-5 8.7-11.4 11.6-14.3 2.9-2.8 6.3-5.5 7.6-5.8 1.4-0.4 3.1 0.1 4.7 1.3 1.4 1.1 5.6 5.5 9.4 9.9 3.7 4.3 14.3 17.1 23.5 28.3 9.1 11.2 24 29.5 33 40.5 9 11.1 27.9 34.4 42 51.9 14.1 17.5 26.5 32.1 27.6 32.4 1.1 0.3 2.9 0.2 4 0 1.1-0.3 5.6-3.4 10-6.9 4.4-3.5 17-14 28.1-23.3 11-9.4 23.3-19.7 27.4-23 4-3.3 9-7.9 11.1-10.3 2.2-2.3 3.9-5.1 3.9-6.2 0-1.1-0.8-3.7-1.9-5.8-1-2-3.8-6.2-6.2-9.2-2.4-3-13.4-15.9-24.4-28.5-11.1-12.6-29.5-33.7-41-46.9-11.6-13.1-28.1-32-36.9-42-8.7-9.9-20.2-23.5-25.5-30.1-5.4-6.7-10.3-13.8-11-16-0.8-2.2-1-5.3-0.7-7 0.4-1.6 2.4-5 4.4-7.5 2-2.5 11.1-13.3 20.2-24 9-10.7 24.1-28.5 33.5-39.5 9.4-11 21.8-25.6 27.6-32.5 5.9-6.9 15.5-17.9 21.4-24.5 5.9-6.6 13.5-15.4 16.8-19.5 3.3-4.1 6.6-9 7.4-10.8 0.7-1.7 1.1-4.2 0.8-5.5-0.3-1.2-4-5.6-8.2-9.8-4.3-4.2-13.9-12.9-21.3-19.5-7.4-6.5-19.1-16.3-26-21.8-6.9-5.5-15.2-11.7-18.5-13.8-3.3-2.1-6.7-3.9-7.5-3.9-0.8 0-2.6 0.9-4 1.9-1.4 1-10.7 12.6-20.7 25.8-10.1 13.1-25.8 33.6-35 45.4-9.1 11.8-20.5 26.4-25.1 32.5-4.7 6.1-12.6 16.6-17.6 23.5-5 6.8-11.6 15-14.7 18.2-4.3 4.5-6.3 5.8-8.5 5.8-1.6 0-4.1-1-5.5-2.3-1.5-1.2-7.1-7.9-12.5-14.8-5.5-7-17.2-22.3-26.1-34-8.9-11.8-22.1-28.8-29.2-37.9-7.2-9.1-20.6-26.2-29.8-38-9.2-11.8-18.4-23.2-20.3-25.3-1.9-2.1-4.2-3.8-5-3.7-0.8 0-3.5 1-6 2.1-2.5 1.2-9 6-14.5 10.7zm1370.5-8.3c-10.7 1.4-22.4 3-26 3.6-3.6 0.6-14.4 3.9-24 7.4-9.6 3.4-22 8.2-27.5 10.5-5.5 2.4-13.6 6.8-17.9 9.9-4.4 3.1-12.9 10.3-18.9 16.1-6.1 5.8-14.7 15.1-19.1 20.6-4.5 5.6-10.4 14.2-13.2 19-2.7 4.9-7.3 13.8-10.1 19.9-2.8 6.1-6.8 16.6-8.8 23.5-2.1 6.9-5 18.8-6.6 26.5-1.5 7.7-3.3 15.4-3.9 17-0.6 1.6-1.6 9.5-2.2 17.5-0.6 8.7-0.8 33.3-0.5 61.5l0.5 47c7.3 19.4 11.5 29.5 14.1 35 2.6 5.5 7.4 14 10.8 19 3.4 5 10.1 13.2 15 18.4 4.8 5.2 12.2 12.1 16.3 15.4 4.1 3.3 12.5 9.3 18.5 13.2 6.1 3.9 15.1 9.4 20 12.2 5 2.9 12.6 6.6 17 8.3 4.4 1.7 10 4 12.5 5 2.5 1 8.6 2.8 13.5 3.8 5 1.1 10.1 2.5 11.5 3 1.4 0.5 6.3 1.5 11 2.2 4.7 0.6 17.7 3.4 29 6.2 16.5 4 22.7 6 31.5 10.3 6.1 2.9 12.9 6.6 15.3 8.4 2.3 1.7 5.4 5.2 7 7.8 2.3 4.1 2.7 5.9 2.6 11.8-0.1 5.1-1.1 10.1-3.8 18.5-2.1 6.3-5.3 15.1-7.2 19.5-1.9 4.4-7.3 15-12.1 23.5-4.7 8.5-12.4 21.5-17.2 28.8-4.7 7.4-9.9 15.5-11.5 18-1.7 2.6-3.2 6.5-3.4 8.7-0.3 2.8 0 4.2 0.9 4.6 0.8 0.4 5.9 1.2 11.4 1.9 6.5 0.7 17.7 0.9 32 0.6 12.1-0.4 33.5-0.9 47.5-1.2l25.5-0.5c11.8-18.1 18.6-29.3 22.6-36.4 4-7.1 8.9-16.6 11-21 2-4.4 6.6-15.9 10.2-25.5 3.6-9.6 7.1-19.3 7.7-21.5 0.9-2.7 1.4-13.8 1.7-34l0.4-30c-9.1-18-13.6-24.9-17.9-30-3.7-4.4-10.1-10.8-14.2-14.3-4.1-3.5-10-8-13-10-3-2-9.1-5.1-13.5-7-4.4-1.8-10.5-4.4-13.5-5.7-3-1.4-8-3.1-11-3.9-3-0.8-7.5-2.1-10-2.9-2.5-0.8-9.4-2.7-15.5-4.2-6.1-1.5-14.2-3.3-18-4.2-3.8-0.8-11.5-2.5-17-3.9-5.5-1.3-12.9-3.1-16.5-4-3.6-0.9-8.7-2.5-11.5-3.6-2.7-1.1-8.4-3.4-12.5-5-4.1-1.6-10.7-4.2-14.5-5.7-3.8-1.5-8.8-4-10.9-5.6-2.2-1.7-7-6.6-10.8-11-3.8-4.4-8.4-10.3-10.2-13-1.8-2.8-3.8-7.1-4.4-9.8-0.7-2.6-1.6-10-2.1-16.5-0.5-6.4-1.3-19.8-1.6-29.7-0.4-10-0.2-25.3 0.4-34.5 0.6-9.1 1.7-19.9 2.5-24 0.8-4.1 2.9-12.5 4.7-18.5 1.8-6.1 5-15.3 7.1-20.5 2.2-5.2 6.3-13.1 9.2-17.5 3-4.4 7.2-9.7 9.5-11.8 2.2-2 7.1-5.7 10.9-8.1 3.7-2.4 9.4-5.6 12.7-7.1 3.3-1.5 8.3-3.4 11-4.2 3.1-0.9 11.6-1.6 22-2 9.3-0.3 20.8 0 25.5 0.5 4.7 0.6 14.1 2.2 21 3.7 6.9 1.4 17.9 4.2 24.5 6.1 6.6 2 15.8 4.7 20.5 6.2 5.8 1.7 11 2.6 16.2 2.6 4.2 0.1 8.2-0.3 8.8-0.9 0.5-0.6 3.5-8 6.4-16.5 3-8.5 7.7-21.1 10.4-28 2.7-6.9 7.3-17.9 10.2-24.5 4.5-10.4 5.1-12.5 4.4-15.5-0.9-3.4-1.2-3.6-13.4-7.8-6.9-2.4-15.9-5.4-20-6.6-4.1-1.3-8.8-2.9-10.5-3.5-1.7-0.7-9.5-3-17.5-5.2-12.4-3.5-17.2-4.3-33-5.5-10.2-0.8-21-1.9-24-2.4-3-0.6-13.2-1.3-22.5-1.5-9.3-0.2-18.1-0.2-19.5 0.1-1.4 0.3-11.3 1.6-22 2.9zm-487 2.9c-8.5 0.9-17.5 2.2-20 3-2.5 0.7-9 2.3-14.5 3.5-5.5 1.1-15.2 3.9-21.5 6.2-6.3 2.2-13.7 5.2-16.5 6.6-2.7 1.3-9.9 5.7-16 9.7-6 4.1-14.3 10.2-18.3 13.7-3.9 3.5-8.9 8.9-10.9 11.9-2 3-5.8 10.1-8.5 15.7-2.6 5.7-5.5 12.9-6.3 16-1.1 4.2-1.5 11-1.5 24 0 11.5 0.5 21 1.4 25.5 0.8 4 2.8 10.9 4.5 15.3 1.7 4.4 5.3 11.6 8 16 2.7 4.4 7.6 11 10.8 14.7 3.2 3.7 8.5 8.8 11.8 11.4 3.3 2.5 9 6.1 12.8 8 3.7 1.9 11.5 4.8 17.5 6.5 5.9 1.8 11.9 3.8 13.5 4.5 1.5 0.8 2.7 1.9 2.7 2.4 0 0.5-0.4 1.9-1 3-0.5 1.1-2.3 2.7-4 3.5-1.7 0.8-7.4 2.4-12.7 3.4-5.4 1.1-12.7 3-16.3 4.4-3.6 1.3-11.2 4.8-17 7.7-5.8 2.9-12.5 6.6-15 8.3-2.5 1.7-7 5.3-10 8-3 2.7-8.1 7.9-11.3 11.5-4.2 4.8-7.6 10.3-11.9 19.2l-6 12.5c0.8 54.9 1 57.4 3 63 1.2 3.3 4.4 10.5 7.1 16 2.7 5.5 7.5 13.4 10.8 17.5 3.3 4.1 9.3 10.7 13.4 14.5 4.1 3.9 11.7 10.3 16.9 14.4 5.2 4 12.2 8.6 15.5 10.1 3.3 1.6 9.8 4.1 14.5 5.7 4.7 1.7 13.5 4.6 19.5 6.6 6.8 2.2 19.9 5.2 34.5 7.7l23.5 4.1c74.8 0.9 95.8 0.8 104.5 0.1 7.4-0.7 21.4-2.5 31-4.1 9.6-1.6 20-3.2 23-3.6 3-0.4 10.5-2 16.5-3.6 6.1-1.6 14.2-3.9 18-5 3.8-1.2 10.8-3.2 15.5-4.6 4.7-1.4 10.5-3.2 12.9-4.1 2.4-1 6.2-3.3 8.4-5.2l4-3.5c-1.2-67-1.9-83.3-2.7-85.5-0.9-3-1.6-3.5-4.6-3.8-1.9-0.2-5.7 0.5-8.5 1.4-2.7 0.9-11.5 4-19.5 7-8 2.9-20.8 7.1-28.5 9.3-8.3 2.3-20.3 4.8-29.5 6.1-8.5 1.1-19.3 2.8-24 3.6-5.9 1-19.3 1.7-44 2.1-25.7 0.4-38 0.2-44.5-0.7-4.9-0.7-11-1.9-13.5-2.7-2.5-0.7-7-1.8-10-2.3-3-0.6-8.7-2.6-12.5-4.5-3.8-1.9-10.2-6-14-9.1-3.8-3.1-8.9-7.5-11.3-9.8l-4.2-4.1-0.1-36c16.7-14.1 23.9-19.4 26.6-20.8 2.8-1.3 8.2-3.4 12-4.5 3.8-1.1 9.3-2.5 12-3.1 2.8-0.5 13.1-1.7 23-2.5 9.9-0.9 31.3-2 47.5-2.6 16.2-0.5 36.5-1 45-1h15.5c-1.2-29.1-1.5-47.7-1.5-60.3v-22.7c-48.4-0.1-73.1-0.5-86-1-20.1-0.8-24.9-1.3-33.5-3.5-5.5-1.4-14.5-4.6-20-7.1-5.5-2.5-12.6-6.4-15.7-8.5-3.9-2.6-7.1-5.9-9.8-10.2-2.3-3.4-4.5-7.8-5-9.7-0.6-1.9-1-5.8-1-8.5 0.1-2.8 0.7-6.8 1.5-9 0.8-2.2 2.7-5.8 4.2-7.9 1.6-2.2 4.7-5.9 7.1-8.3 2.3-2.3 6.3-5.3 9-6.5 2.6-1.1 9.2-3.5 14.7-5.1l10-3 87-1c16.3 4.2 24.8 6.7 29.5 8.4 4.7 1.6 19.2 6.5 32.3 10.9 22.8 7.7 23.8 7.9 26.7 6.5 1.7-0.8 4.1-3.4 5.4-5.8 1.3-2.3 2.9-6 3.6-8.2 0.7-2.2 4.3-11.2 8-20 3.7-8.8 7.1-17.1 7.5-18.5 0.5-1.4 3.2-7.5 6.2-13.5 4.2-8.7 5.3-12 5.3-15.8 0-4.1-0.4-4.9-2.7-6.4-1.6-0.9-5.7-2-9.3-2.4-3.6-0.4-9.3-2-12.7-3.4-3.5-1.4-12.7-4.3-20.5-6.5-7.9-2.3-18.1-4.7-22.8-5.4-4.7-0.8-12.5-2.4-17.5-3.6-5.6-1.3-16.6-2.7-29-3.6-11-0.7-22.7-1.8-26-2.4-3.3-0.6-16.3-1.3-29-1.5-19.6-0.4-24.8-0.2-35 1.5-6.6 1.1-19 2.6-27.5 3.4zm-1301 6c-2.5 0.9-7.2 2.4-10.5 3.2-3.3 0.9-9.5 3.1-13.7 5-4.3 1.9-8.3 3.4-9 3.4-0.6 0-6.3 3.5-12.7 7.7-6.4 4.2-15.6 11.5-20.5 16.2-4.9 4.7-12.5 13.1-16.9 18.6-4.4 5.5-10.1 13.1-12.7 17-2.6 3.9-6.8 10.8-9.2 15.5-2.5 4.7-6.6 13.7-9.1 20-2.6 6.3-4.7 12.3-4.7 13.2 0 1-1.5 6.6-3.4 12.5-1.9 6-4.1 15.3-5 20.8-0.9 5.5-2.5 14-3.6 19-1.6 7.4-2.1 14.5-2.6 39.5-0.5 20.2-0.3 35 0.5 44 0.6 7.4 1.8 16.6 2.7 20.5 0.8 3.9 2.3 13.3 3.3 21 1.2 8.4 3.4 18.8 5.6 26 2 6.6 4.7 14.7 6 18 1.3 3.3 4.7 11.2 7.5 17.5 2.9 6.3 7 14.2 9.3 17.5 2.2 3.3 7.4 10.3 11.5 15.5 4.2 5.2 12.8 14.7 19.1 21.1 7.3 7.3 14.7 13.6 20.1 17.1 4.7 3 14.5 8 21.8 11.1 7.2 3.2 13.9 5.7 14.7 5.7 0.8 0 4.9 1.4 9 3 4.6 1.8 10.9 3.4 16.3 4 4.8 0.5 16.4 1 25.7 1 9.4 0 22.2-0.5 28.5-1 9.1-0.8 14-1.8 23.5-5 6.6-2.3 16.7-6.4 22.5-9.1 5.8-2.8 13.4-7 17-9.4 3.6-2.4 11.9-9.4 18.5-15.6 6.6-6.2 15-13.9 18.8-17.1 3.7-3.2 7.7-6.1 9-6.4 1.2-0.4 2.8-0.4 3.5 0 0.6 0.3 4 5.7 7.4 11.8 5.5 9.8 7.9 12.9 18.3 23.4 11.2 11.3 12.7 12.4 22.5 17.1 5.8 2.8 13.7 6.1 17.5 7.3 6 1.9 10 2.3 28.5 2.7 11.8 0.3 27.1 0 34-0.5 6.9-0.6 14.8-1.8 17.5-2.8 2.8-0.9 6-2.6 7.2-3.8 1.8-1.7 2.5-4.1 3.4-11.6 0.7-5.6 1.3-23.6 1.3-43.7l0.1-34.2c-4.3-4.3-5.9-4.7-16.3-5.2-9.8-0.5-12.6-1-17.4-3.2-3.9-1.8-7-4.2-9.6-7.5-2.1-2.6-5.3-8.5-7.2-13.2l-3.5-8.5c0.3-79.8 0.9-124.8 1.5-151.5 0.6-26.7 1.5-53.8 2-60.3 0.6-6.4 1.9-15.8 3-20.7 1.1-5 2-10.7 2-12.8 0-2 1.3-9.1 2.9-15.7 1.7-6.6 4.8-19.4 7.1-28.5 2.2-9.1 4-18.9 4-21.8 0-4.4-0.3-5.4-2.2-6.2-1.6-0.8-15.9-0.8-45.8-0.3-41.8 0.8-43.6 0.9-47 2.9-1.9 1.2-4.9 3.9-6.6 6-1.7 2.2-4.8 7.2-6.8 11.1-2 4-5.4 11.9-7.7 17.5-2.3 5.7-4.9 11.9-5.9 13.8-1 1.9-2.5 4.1-3.4 4.7-1.3 1-1.9 1-3.3 0-0.9-0.6-5-5.5-9.2-10.7-4.1-5.2-10.9-12.8-15.1-16.8-4.1-4.1-11.3-9.9-16-13.1-4.7-3.1-12.3-7.3-17-9.3-4.7-2-12.5-4.8-17.5-6.3-7.7-2.3-11.9-2.8-30-3.5-11.5-0.5-28-0.9-36.5-0.8-8.5 0-19.3 0.4-24 0.8-4.7 0.4-10.5 1.5-13 2.4zm839.9 6.2c-0.4 4.4-0.8 64.6-0.8 133.9 0 69.3 0.4 144 0.8 166 0.8 39.5 0.9 40.1 3.4 47.5 1.5 4.1 3.2 10 3.8 13 0.6 3 3.2 9.5 5.6 14.5 2.5 5 7 12.7 9.9 17.2 3 4.6 9.3 12.4 14.2 17.4 4.8 5 11.9 11.5 15.7 14.5 3.8 2.9 7.6 5.4 8.3 5.4 0.6 0 3.8 1.2 7 2.6 3.1 1.4 13.4 4.9 22.7 7.7l17 5.2c66.4 0 80.5-0.4 86.5-1.3 4.7-0.7 12.8-2.4 18-3.7 5.2-1.3 12.7-3.5 16.5-4.9 3.8-1.4 9.3-3 12-3.6 2.8-0.7 6.2-2 7.8-3.1 1.6-1.1 3.1-3.5 3.7-5.7 0.6-2.1 1-20.1 1-42.7v-39c-5.4-2.7-8.1-3.5-9.5-3.5-1.4 0-6.9 1.1-12.2 2.5-5.4 1.3-14.1 3.2-19.3 4.1-6.6 1.1-15.8 1.6-30.5 1.7-14.3 0-22.7-0.3-26.5-1.3-3-0.7-7.7-2.3-10.5-3.5-3.3-1.4-6.8-4.2-10.3-8.1-2.9-3.2-6.7-8.6-8.4-11.9l-3.3-6c-1.1-234.1-1.8-306.1-2.2-311.1-0.5-5.1-1.2-9.6-1.6-10-0.5-0.5-5.7-1.2-11.5-1.6-5.9-0.3-31.6-0.9-57.2-1.3-28.4-0.4-47-0.2-47.9 0.3-0.9 0.6-1.7 3.9-2.2 8.8z"/><path fill-rule="evenodd" class="a" d="m5379 415.7c-1.9 0.2-8 1-13.5 1.9-5.5 0.9-15.2 3.2-21.5 5.1-6.3 1.9-16.2 5.8-22 8.7-5.8 2.8-13.2 7-16.5 9.1-3.2 2.2-10.7 8.2-16.5 13.4l-10.5 9.4-0.5-41.3h-81v389.5c61.6-1.3 79.6-1.8 79.7-1.9 0.1 0 0.5-54.8 0.8-121.6l0.6-121.5c6.3-20.1 9.7-29.1 11.6-33 1.9-3.9 5.2-9.5 7.3-12.5 2.1-3 6.4-8 9.6-11.1 3.3-3 8.1-7 10.9-8.9 2.7-1.9 8.4-4.9 12.5-6.8 4.1-1.9 11.8-4.5 17-5.8 5.7-1.4 14.3-2.6 21.5-3 6.9-0.4 15.8-0.2 21 0.5 4.9 0.6 12.6 2 17 3.1 4.4 1.1 11.6 3.8 16 6 4.4 2.1 11 6.4 14.7 9.4 3.8 3.1 9.3 8.6 12.4 12.4 3.1 3.7 7.8 11.2 10.4 16.7 2.7 5.5 6 14.3 7.4 19.5 1.4 5.2 3.1 13.1 3.7 17.5 0.8 5.6 1.3 42.5 1.5 124.3l0.4 116.2 79.1-0.5-0.7-259c-4.8-20.9-7.6-31.3-9.4-36.5-1.7-5.2-4.8-13.1-6.9-17.5-2-4.4-6.2-11.8-9.2-16.5-3-4.7-8.2-11.6-11.5-15.5-3.3-3.9-9.8-10.2-14.5-14.1-4.6-3.9-11.8-9.3-15.9-11.9-4.1-2.7-11.1-6.5-15.5-8.5-4.4-2-12.3-5.1-17.5-6.8-5.2-1.8-12.9-3.9-17-4.8-4.1-0.8-13.6-2.2-21-3-7.4-0.7-17.3-1.3-22-1.2-4.7 0.1-10.1 0.3-12 0.5zm-728.5-147.7c-2.2 0.5-6.5 1.8-9.5 3-3 1.2-7.8 3.8-10.6 5.8-2.9 2.1-6.9 5.7-8.9 8.2-2.1 2.5-5.3 7.6-7.1 11.5-2 4-3.7 9.8-4.2 13.5-0.5 3.7-0.5 10.2 0 15 0.7 6.8 1.6 10.1 4.8 16.5 2.2 4.5 6 10.2 8.8 13 3.1 3.3 7.7 6.5 13.3 9.2 5.9 2.9 10.8 4.5 16.4 5.4 6.1 0.9 9.6 0.9 14.8 0 3.7-0.6 9.1-2.2 12-3.5 2.8-1.3 7.2-3.7 9.7-5.4 2.5-1.7 6.6-5.7 9.3-8.9 2.6-3.2 5.8-8.1 7.1-10.8 1.3-2.8 2.8-7.4 3.5-10.3 0.6-2.8 1.1-8.2 1.1-12 0-3.7-0.7-9.4-1.5-12.7-0.9-3.3-2.8-8.5-4.2-11.5-1.6-3.2-5.4-8.2-9.3-12-4-4-9.1-7.7-13-9.7-3.6-1.7-9.2-3.6-12.5-4.2-3.3-0.6-8.2-1.1-11-1-2.7 0.1-6.8 0.5-9 0.9zm-1691 20.7c-0.5 0.3-0.8 42-0.7 92.5 0.2 72.9-0.1 91.8-1 91.8-0.7-0.1-4.7-3.4-8.8-7.4-4.1-3.9-9.7-9-12.5-11.2-2.7-2.3-8.4-6.4-12.5-9.2-4.1-2.8-12.7-7.5-19-10.6-6.3-3-16.9-7.3-23.5-9.5-6.6-2.2-16.7-5-22.5-6.2-7.4-1.5-15.5-2.3-27.5-2.7-9.4-0.2-22.3 0.1-29 0.7-6.6 0.7-16.3 2.2-21.5 3.6-5.2 1.3-13.1 3.6-17.5 5-4.4 1.5-13.2 5.2-19.5 8.2-6.3 3-15.1 7.8-19.5 10.8-4.4 2.9-11.6 8.3-16 12-4.4 3.6-12.2 11.2-17.3 16.8-5.1 5.6-12.5 14.9-16.4 20.7-3.8 5.8-9.6 15.9-12.8 22.5-3.2 6.6-7 15.4-8.5 19.5-1.5 4.1-3.9 12.5-5.5 18.5-1.6 6-3.8 17.3-4.9 25-1.4 9.4-2.1 19.1-2.1 29.5 0 8.5 0.5 21.4 1 28.5 0.6 7.1 2.2 18.6 3.6 25.5 1.4 6.9 4.5 18.6 7 26 2.4 7.4 7.1 18.9 10.3 25.5 3.3 6.6 8.3 15.6 11.2 20 2.8 4.4 7.5 10.9 10.4 14.5 2.8 3.6 7.8 9.4 11.1 12.9 3.2 3.5 10 9.8 14.9 13.9 4.9 4.2 12.6 9.9 17 12.8 4.4 2.8 11.6 7 16 9.2 4.4 2.2 12.3 5.5 17.5 7.5 5.2 1.9 12.2 4.2 15.5 5.1 3.3 0.8 11.6 2.5 18.5 3.7 9.8 1.7 16.2 2.2 29.5 2.1 10 0 21.3-0.7 27.5-1.7 5.8-0.8 14.8-2.7 20-4.1 5.2-1.4 14-4.4 19.5-6.7 5.5-2.2 14.1-6.3 19-9.1 4.9-2.7 12.6-7.6 17-11 4.4-3.3 10.9-9 14.5-12.6 3.6-3.6 8.5-8.6 10.8-11.3 2.3-2.6 4.6-4.7 5.2-4.7 0.6 0 1.1 10.1 1.3 27.7l0.2 27.8 80.5 0.5-0.5-522.5c-61.3-0.4-79.5-0.2-80 0.2zm-129.5 197c1.4-0.3 6.6-0.5 11.5-0.6 4.9-0.1 12.8 0.6 17.5 1.4 4.7 0.9 12.1 2.7 16.5 4.2 4.4 1.4 11.6 4.3 16 6.5 4.4 2.2 11.2 6.1 15 8.6 3.8 2.6 10.8 8.5 15.5 13.2 4.7 4.7 10.6 11.6 13.1 15.5 2.6 3.9 6.5 10.6 8.7 15 2.2 4.4 5.2 11.4 6.6 15.5 1.5 4.1 3.7 11.8 4.9 17 1.8 8.2 2.1 12.8 2.1 33.5 0.1 19.3-0.2 25.6-1.6 32-1 4.4-3.3 12.5-5.1 18-1.9 5.5-4.7 12.7-6.3 16-1.5 3.3-5.4 9.8-8.5 14.5-3.2 4.7-8.4 11.2-11.6 14.5-3.2 3.3-8.5 8.3-11.8 11.1-3.3 2.7-9.4 7-13.5 9.4-4.1 2.4-11.3 5.8-16 7.6-4.7 1.8-13.2 4.2-19 5.3-7.3 1.5-14.3 2.1-23 2.1-6.9 0-16.4-0.7-21.2-1.5-4.9-0.8-12.5-2.8-17-4.5-4.6-1.6-11.9-5-16.3-7.5-4.4-2.5-11.3-7.2-15.4-10.3-4.1-3.1-9.9-8.4-12.9-11.7-3-3.3-7.4-8.7-9.8-12-2.3-3.3-6-9.4-8.3-13.5-2.2-4.1-5.6-11.8-7.4-17-1.9-5.2-4.4-13.8-5.5-19-1.1-5.2-2.6-16-3.2-24-0.9-10.8-0.9-17.3-0.1-25.5 0.6-6 2.2-15.7 3.5-21.5 1.3-5.8 3.8-14.1 5.5-18.5 1.7-4.4 5.1-11.6 7.6-16 2.6-4.4 6.3-10.3 8.5-13 2.1-2.8 7.7-8.7 12.4-13.3 4.7-4.5 11.6-10.2 15.4-12.6 3.7-2.4 9.4-5.7 12.7-7.3 3.3-1.7 9.2-4.2 13-5.6 3.8-1.4 11.1-3.2 16-4.1 4.9-0.8 10.1-1.7 11.5-1.9zm-1737.5-180c6.6 0.2 17.6 0.2 24.5 0 6.9-0.1 1.5-0.3-12-0.3-13.5 0-19.1 0.2-12.5 0.3zm1240.3 14l-4.7 0.4c-1.1 16.6-1.1 126.7-0.7 255.4 0.4 128.7 0.8 234.1 0.9 234.1 0.1 0.1 60.8 0.6 135 1l134.7 0.9v-67.5h-190v-150l168.5-0.5 0.5-64.5h-169v-144h190v-66c-201.9 0.3-262.6 0.5-265.2 0.7zm2067.2 53v47.8l-46 1.5v65l45.5 0.5 1.3 243c4.8 16.3 8.5 25.7 11.4 31.5 4.1 8 7 12.3 12.8 18.3 4.1 4.4 10.6 10 14.5 12.5 3.9 2.5 10.8 6.1 15.5 7.9 4.7 1.9 13.7 4.5 20 5.9 11 2.5 13.4 2.6 55.8 3.2l44.2 0.7v-67.5c-42.2 0-57.4-0.5-61-1-3.6-0.5-9-1.7-12-2.6-3.8-1.2-7-3.1-10.4-6.3-2.6-2.5-6-6.9-7.5-9.6l-2.6-5c-0.4-62-0.6-114.1-0.7-155.8l-0.3-75.7h94.5v-64.5c-52.3-1.2-73.5-1.5-80.7-1.5h-13.3l-0.5-95.5-80.5-0.5zm-4129.5-20c2.8 0.2 6.8 0.2 9 0 2.2-0.2 0-0.4-5-0.4-4.9 0-6.7 0.2-4 0.4zm830.5 0c3 0.2 7.5 0.2 10 0 2.5-0.2 0-0.4-5.5-0.4-5.5 0-7.5 0.2-4.5 0.4zm-607 3c3 0.2 7.5 0.2 10 0 2.5-0.2 0-0.4-5.5-0.4-5.5 0-7.5 0.2-4.5 0.4zm-26 1c1.9 0.2 5.3 0.2 7.5 0 2.2-0.2 0.6-0.4-3.5-0.4-4.1 0-5.9 0.2-4 0.4zm576.5 103.7c0 39.1 0.1 55.3 0.3 36 0.1-19.2 0.1-51.2 0-71-0.2-19.8-0.3-4-0.3 35zm834-66.6c-1.6 1.6-4.6 4.6-6.5 6.7-1.9 2.2-0.4 1 3.3-2.6 3.7-3.5 6.7-6.6 6.7-6.7 0-0.1-0.1-0.2-0.2-0.2-0.2 0-1.6 1.3-3.3 2.8zm1814 21.8c-1.6 0.2-7.3 0.8-12.5 1.4-5.2 0.6-13.3 1.9-18 2.9-4.7 1-13.4 3.5-19.5 5.5-6 2-15.7 5.9-21.5 8.7-5.8 2.7-12.7 6.4-15.5 8.1-2.7 1.7-9.5 6.5-15 10.7-5.5 4.1-13.1 10.6-17 14.5-3.8 3.9-10 10.9-13.8 15.6-3.7 4.6-9.2 12.5-12.2 17.4-2.9 5-7.4 13.3-9.9 18.5-2.5 5.3-6.3 14.9-8.5 21.5-2.1 6.6-5 17.7-6.4 24.5-1.4 6.9-3.1 17.7-3.8 24-0.8 7.5-1 19.1-0.6 33 0.3 12 1.3 26.2 2.2 32 0.9 5.8 3.2 16.4 5 23.5 1.8 7.2 5.2 17.8 7.5 23.5 2.3 5.8 6.4 14.8 9.2 20 2.8 5.3 7.3 12.9 10.1 17 2.7 4.2 7.5 10.6 10.6 14.4 3.1 3.8 9.3 10.4 13.7 14.5 4.5 4.2 12.1 10.5 17 14 4.9 3.5 13 8.7 17.9 11.6 5 2.9 14.2 7.4 20.5 9.9 6.3 2.5 16.9 5.9 23.5 7.6 6.6 1.7 17.6 3.8 24.5 4.7 7.2 0.9 19.7 1.6 29.5 1.6 12.1 0 21.2-0.6 31.5-2.1 8-1.2 18.8-3.3 24-4.8 5.2-1.4 13.9-4.3 19.3-6.5 5.3-2.1 13.2-5.6 17.5-7.8 4.2-2.1 11-6.1 14.9-8.7 4-2.7 11.1-8.2 15.9-12.4 4.8-4.1 12.9-12.2 18-18 5.8-6.4 12-14.9 16.2-22 3.8-6.3 8.8-15.7 11.2-21 2.3-5.2 5.3-12.6 6.6-16.5 1.7-4.8 2.1-7.3 1.4-8-0.7-0.6-17-1.1-42.8-1.4l-41.7-0.4c-7 14.6-10.6 21.1-12.5 23.8-1.9 2.8-5.7 7.4-8.4 10.4-2.8 2.9-8 7.5-11.6 10.2-3.6 2.6-9.4 6.1-13 7.8-3.6 1.7-10.5 4.3-15.5 5.8-8.6 2.6-10 2.7-31.5 2.8-21 0-23-0.1-30-2.3-4.1-1.3-10.9-3.8-15-5.6-4.1-1.7-10.4-5.1-14-7.5-3.6-2.4-9.9-7.8-14.1-12-4.2-4.2-9.6-10.7-12.1-14.6-2.5-3.8-6-9.9-7.8-13.5-1.8-3.5-4.7-11-6.6-16.5-1.8-5.5-4.3-14.7-5.5-20.5-2.1-9.5-2.3-13.1-2.4-39.5 0-26.3 0.2-29.9 2.2-39.5 1.3-5.7 3.8-15 5.7-20.5 1.8-5.5 5.1-13.6 7.3-18 2.2-4.4 6.4-11.1 9.3-15 2.9-3.8 6.6-8.5 8.4-10.3 1.7-1.8 6.3-5.7 10.1-8.6 3.9-2.9 9.9-6.8 13.5-8.8 3.6-2 9.7-4.7 13.5-6 3.9-1.4 11.5-3.3 17-4.3 8.1-1.4 12.8-1.6 24.5-1.1 8.7 0.4 17.7 1.4 22.5 2.6 4.4 1.1 10.9 3.1 14.5 4.5 3.6 1.4 8.5 3.8 11 5.2 2.5 1.5 6.3 4 8.5 5.7 2.2 1.6 6.2 5 8.8 7.6 2.7 2.5 6.5 6.8 8.5 9.5 2.1 2.7 6 9.4 8.8 15l5.1 10c66 0 85.4-0.2 85.7-0.5 0.4-0.2-1-5.2-3-11-1.9-5.7-6.2-16.1-9.5-23-3.3-6.8-9-16.9-12.7-22.4-3.7-5.5-10.7-14.2-15.7-19.4-4.9-5.2-13.7-13-19.5-17.3-6.4-4.9-15.1-10.2-22.5-13.8-6.6-3.2-16.3-7.4-21.5-9.4-5.2-1.9-15.1-4.6-22-6.1-6.9-1.4-19.9-3.2-29-4-9.1-0.9-20.8-1.5-26-1.4-5.2 0.1-10.8 0.3-12.5 0.5zm383.5 0.5c-4.7 0.4-13.2 1.8-19 2.9-5.8 1.2-15.9 3.9-22.5 6.1-6.6 2.1-16.7 6.4-22.5 9.5-5.8 3-13.6 7.6-17.5 10.1-3.8 2.5-10.4 7.3-14.5 10.7-4.1 3.5-11.5 10.5-16.4 15.6-4.8 5.2-11.4 13-14.6 17.4-3.1 4.4-8 12.1-10.8 17-2.7 5-7.1 14-9.7 20-2.6 6.1-6.2 16.4-8.1 23-1.9 6.6-4.4 17-5.5 23-1 6.1-2.3 17.1-2.8 24.5-0.6 8.1-0.6 20.4-0.1 30.5 0.5 9.4 1.2 18.8 1.5 21 0.4 2.2 1.5 8.8 2.7 14.5 1.1 5.8 3.5 15.5 5.3 21.5 1.9 6.1 5.4 15.8 7.8 21.5 2.5 5.8 6.9 14.8 9.9 20 2.9 5.3 7.7 12.9 10.5 17 2.9 4.2 8.4 11.1 12.3 15.5 4 4.4 10.8 11.3 15.3 15.3 4.5 4 12.5 10.2 17.7 13.7 5.2 3.5 12.7 8 16.5 10 3.9 2.1 10.8 5.3 15.5 7.3 4.7 1.9 12.1 4.5 16.5 5.8 4.4 1.3 11.6 3 16 3.8 4.4 0.8 14.3 2.1 22 2.7 10.5 0.9 17.1 0.9 26.5 0.1 6.9-0.6 17-2 22.5-3.2 5.5-1.1 13.2-3 17-4.1 3.9-1.2 11.7-4.1 17.5-6.6 5.8-2.4 14.3-6.8 19-9.6 4.7-2.8 11.9-7.7 16-10.7 4.1-3.1 12.2-10.6 17.9-16.6 8.1-8.5 10.5-10.5 11.2-9.4 0.5 0.9 0.9 13.6 0.9 28.3v26.7h80v-389h-80c-0.1 38.4-0.5 50.6-0.8 51.9-0.6 2.1-1.2 1.7-7.7-5.5-3.8-4.2-10.6-10.7-15-14.4-4.4-3.7-11.1-8.7-15-11.2-3.8-2.5-11-6.5-16-9-4.9-2.5-13.9-6.3-20-8.5-6-2.2-15.9-5-22-6.1-6-1.2-15.7-2.6-21.5-3.2-5.8-0.5-14.3-0.9-19-0.8-4.7 0-12.3 0.5-17 1zm24.5 69.5c1.7-0.2 6.8-0.4 11.5-0.5 4.7-0.1 11.4 0.3 15 0.9 3.6 0.6 10.1 1.9 14.5 3 4.4 1.1 12.3 4 17.5 6.5 5.2 2.6 12.5 6.6 16.3 9 3.7 2.5 10.1 7.7 14.3 11.7 4.2 4 9.8 9.9 12.4 13.2 2.6 3.3 7.1 10.1 9.9 15 2.8 5 6.7 13.5 8.6 19 2 5.5 4.5 14.3 5.6 19.5 1.4 6.5 2.2 15.2 2.6 27 0.4 13.5 0.1 20.3-1.2 29.5-0.9 6.7-3.2 17-5.2 23-1.9 6.1-5.1 14.2-7 18-1.9 3.9-6 10.9-9.1 15.5-3.1 4.7-9.2 12.2-13.7 16.6-4.4 4.4-10.9 10.1-14.5 12.7-3.6 2.5-11.2 6.8-17 9.6-5.8 2.7-14.1 5.9-18.5 7-4.4 1.2-10.7 2.5-14 3.1-3.3 0.6-11.3 1-17.7 1-6.6 0-15.2-0.6-19.5-1.5-4.3-0.9-10.7-2.5-14.3-3.7-3.6-1.1-9.6-3.5-13.5-5.2-3.8-1.8-10.4-5.5-14.5-8.3-4.1-2.8-10.4-7.7-13.9-10.9-3.5-3.2-9.1-9.3-12.5-13.5-3.3-4.2-8.4-11.8-11.3-17-2.8-5.1-6.1-11.8-7.2-14.9-1.2-3-3.2-9.5-4.6-14.5-1.3-4.9-3.1-13.7-3.9-19.5-0.9-5.7-1.6-15.5-1.6-21.7 0-6.2 0.5-15.6 1.1-21 0.5-5.4 2.1-14 3.5-19.3 1.4-5.2 4-13.1 5.8-17.5 1.7-4.4 5.3-11.6 7.9-16 2.7-4.4 7.5-11.2 10.7-15.2 3.3-4 9.9-10.5 14.8-14.5 5.1-4.3 12.9-9.4 18.7-12.4 5.5-2.9 12.9-6.3 16.5-7.6 3.6-1.4 10.6-3.2 15.5-4.1 5-0.9 10.4-1.8 12-2zm833-70.2c-1.1 0.2-6.9 0.9-13 1.6-6 0.6-16.2 2.4-22.5 4-6.3 1.5-16.2 4.5-22 6.5-5.8 2-15.2 6-21 8.8-5.8 2.9-15 8.2-20.5 11.8-5.5 3.6-14.3 10.4-19.5 15-5.2 4.6-13.3 12.8-18 18.1-4.7 5.3-11.4 14.3-14.9 20-3.6 5.6-8.6 14.5-11.3 19.7-2.6 5.3-6.7 15.6-9.2 23-2.4 7.5-5.3 18.3-6.4 24-1.2 5.8-2.5 13.9-3.1 18-0.5 4.2-1.2 11.8-1.6 17-0.3 5.3-0.1 17.4 0.5 27 0.6 9.7 2.2 23.5 3.6 30.8 1.3 7.3 4.4 19.4 6.9 27 2.5 7.6 7.2 19.1 10.5 25.7 3.2 6.6 8.4 15.9 11.6 20.5 3.1 4.7 8.5 11.9 11.9 16 3.4 4.2 9.6 10.7 13.6 14.6 4.1 3.8 11.2 9.9 15.9 13.4 4.7 3.6 11.9 8.5 16 10.9 4.1 2.4 11.3 6.3 16 8.7 4.7 2.3 13.2 5.8 19 7.7 5.8 2 15.7 4.7 22 6.1 6.3 1.4 17.1 3.1 24 3.7 7.5 0.7 20.1 1 31.5 0.6 10.5-0.3 23.3-1.3 28.5-2.1 5.2-0.9 15.8-3.3 23.5-5.5 7.7-2.2 17.8-5.6 22.5-7.6 4.7-2 12.3-5.7 17-8.2 4.7-2.5 11-6.2 14-8.1 3-1.9 9.6-6.7 14.5-10.7 5-3.9 12.6-10.7 17-15.1 4.4-4.4 10.9-11.6 14.5-16.2 3.6-4.5 8.9-12.1 11.8-16.9 2.9-4.8 7.1-12.6 9.4-17.3 2.2-4.6 5.3-11.6 6.8-15.5 1.5-3.8 3.9-11 5.3-16 1.4-4.9 3.6-14.1 4.8-20.5 1.4-7.6 2.3-17.2 2.6-28.5 0.3-9.3 0-23.8-0.6-32.2-0.6-8.4-2-20.1-3.2-26-1.1-5.9-4.1-16.8-6.5-24.3-2.4-7.4-6.8-18.4-9.8-24.5-3-6-7.8-14.6-10.6-19-2.9-4.4-8.1-11.6-11.5-16-3.4-4.4-10-11.6-14.6-16-4.7-4.4-12.7-11.1-17.9-15-5.2-3.9-12.9-9-17-11.4-4.1-2.4-11.3-6.2-16-8.3-4.7-2.2-12.5-5.4-17.5-7.3-4.9-1.8-13.5-4.5-19-5.8-5.5-1.4-15.2-3.3-21.5-4.2-6.3-0.8-18.9-1.7-28-2-9.1-0.2-17.4-0.2-18.5 0zm-7 71c3.9-0.7 10.6-1.3 15-1.3 4.4-0.1 13.2 0.3 19.5 0.8 8.8 0.6 14 1.7 22 4.3 5.8 1.9 13.4 4.9 17 6.7 3.6 1.8 9.4 5.3 13 7.8 3.6 2.6 9.6 7.6 13.4 11.2 3.8 3.6 9.4 9.9 12.5 14 3 4.2 7.5 11.4 9.8 16 2.4 4.7 5.5 12.1 6.9 16.5 1.4 4.4 3.4 11.9 4.6 16.5 1.7 7 2.1 12.9 2.5 33 0.4 22.3 0.3 25.5-1.7 35-1.1 5.8-3.4 14.5-5.1 19.3-1.6 4.8-4.8 12.5-7 17-2.3 4.5-5.7 10.6-7.5 13.5-1.9 2.9-6.7 8.7-10.6 12.9-4 4.2-10.7 10.3-14.8 13.6-4.1 3.3-12 8.2-17.5 10.8-5.5 2.7-14 6.1-19 7.5-4.9 1.4-11.9 2.9-15.5 3.5-3.6 0.5-12.3 0.9-19.5 0.9-7.9 0.1-16.3-0.6-21.5-1.6-4.7-0.8-11.9-2.7-16-4.1-4.1-1.4-10.2-3.9-13.5-5.5-3.3-1.7-8.9-5.1-12.5-7.8-3.6-2.6-10.3-8.7-15-13.6-5.4-5.6-10.6-12.2-13.9-17.9-3-4.9-6.8-12.6-8.6-17-1.7-4.4-4.4-12.5-5.8-18-1.4-5.5-3.2-14.2-3.8-19.5-0.7-5.2-1.3-17.8-1.2-28 0-14.3 0.5-21 2.1-30 1.2-6.3 3.3-15.1 4.8-19.5 1.4-4.4 4.6-12.1 7-17.2 2.4-5.1 7.7-13.6 11.8-19 4.1-5.4 9.6-11.6 12.3-13.8 2.6-2.3 7.3-5.9 10.3-8.2 3-2.2 8.4-5.7 12-7.6 3.6-2 11-5 16.5-6.8 5.5-1.7 13.2-3.7 17-4.4zm-1813.3 62.8l0.4 127.2c4.1 21 6.9 31.8 8.7 37.5 1.9 5.8 5.4 14.6 7.8 19.5 2.3 5 7.3 13.5 11 19 3.7 5.5 10.3 13.7 14.6 18.1 4.3 4.5 11.6 11 16.3 14.4 4.7 3.4 11.4 8 15 10.1 3.6 2.1 11.5 5.8 17.5 8.2 6.1 2.5 15.5 5.6 21 7 5.5 1.5 13.4 3.1 17.5 3.6 4.1 0.6 13.4 1.3 20.5 1.7 7.6 0.4 17.8 0.2 24.5-0.5 6.3-0.6 16.7-2.4 23-3.9 6.3-1.6 15.8-4.6 21-6.6 5.2-2.1 13.1-5.8 17.5-8.3 4.4-2.5 10.5-6.3 13.5-8.6 3-2.2 9.4-7.8 14.3-12.4 4.8-4.5 9.2-8.3 9.7-8.3 0.6 0 1 8 1 22v22h80v-389h-80l-0.7 239.5c-5 18.6-7.9 27.4-9.6 31.5-1.8 4.2-5.7 11.1-8.7 15.4-3 4.4-8.2 10.5-11.5 13.6-3.3 3.1-9.1 7.5-13 9.8-3.8 2.3-9.9 5.3-13.5 6.8-3.6 1.4-10.3 3.4-15 4.5-4.7 1-12.8 2.2-18 2.5-5.4 0.4-14.2 0.2-20.5-0.5-6-0.6-14.3-2-18.2-3.1-4-1.1-11-3.7-15.5-5.8-4.6-2.1-11.2-6.1-14.7-8.8-3.5-2.7-8.8-7.6-11.7-10.9-2.9-3.3-7.1-9.1-9.3-13-2.3-3.8-5.2-9.9-6.6-13.5-1.3-3.5-3.7-10.7-5.2-16l-2.7-9.5-0.6-242.5h-80.1zm1506.7 67.3v194.5c16.7 0 34.7-0.4 50.8-0.8l29.2-0.7v-387.5h-80zm-3452.5-158.5c0 16.8 0.1 23.5 0.3 15 0.2-8.5 0.2-22.3 0-30.5-0.2-8.3-0.3-1.3-0.3 15.5zm376-21.3c3.3 0.2 9 0.2 12.5 0 3.6-0.2 0.9-0.3-6-0.3-6.8 0-9.8 0.1-6.5 0.3zm-171.1 22.3c0 5.8 0.2 8 0.4 5 0.2-3 0.2-7.8 0-10.5-0.2-2.8-0.4-0.3-0.4 5.5zm-880 44.5c0 3.8 0.1 5.2 0.4 3 0.2-2.2 0.2-5.4 0-7-0.3-1.7-0.4 0.1-0.4 4zm1096.1 21.2c4.4 0.2 11.2 0.2 15 0 3.9-0.2 0.3-0.3-8-0.3-8.2 0-11.4 0.1-7 0.3zm64 29.3c0 16.2 0.1 22.7 0.3 14.5 0.2-8.3 0.2-21.5 0-29.5-0.2-8-0.3-1.2-0.3 15zm-1580.1-3c0 4.1 0.1 5.9 0.4 4 0.2-1.9 0.2-5.3 0-7.5-0.3-2.2-0.4-0.6-0.4 3.5zm419 6c0 6.3 0.2 8.8 0.4 5.5 0.2-3.3 0.2-8.5 0-11.5-0.2-3-0.4-0.3-0.4 6zm1447 20.5c0 7.7 0.2 10.6 0.4 6.5 0.2-4.1 0.2-10.4 0-14-0.2-3.6-0.4-0.2-0.4 7.5zm-324.4 31.2c2 0.2 5.3 0.2 7.5 0 2.2-0.2 0.7-0.4-3.5-0.4-4.1 0-5.9 0.2-4 0.4zm-1123.6 12.8c0 7.1 0.2 9.8 0.4 6 0.2-3.9 0.2-9.7 0-13-0.2-3.3-0.4-0.2-0.4 7zm678.1 16.5c0 15.7 0.1 22 0.3 14 0.2-8 0.2-20.8 0-28.5-0.2-7.7-0.3-1.2-0.3 14.5zm646.9-1.5c0 5.5 0.2 7.5 0.4 4.5 0.2-3 0.2-7.5 0-10-0.2-2.5-0.4 0-0.4 5.5zm-769.9 15.5c0 10.2 0.1 14.2 0.3 9 0.2-5.2 0.2-13.6 0-18.5-0.2-5-0.3-0.7-0.3 9.5zm428-11.2c-1.8 1.8-1.9 3.3-1.4 20.3l0.5 18.4c0.4-33.8 0.8-37.3 2.1-38.8 0.9-0.9 1.4-1.7 1.1-1.7-0.3 0-1.3 0.8-2.3 1.8zm268.9 71.7c0 8.8 0.2 12.2 0.4 7.5 0.2-4.7 0.2-11.9 0-16-0.2-4.1-0.4-0.3-0.4 8.5zm-521.4-4.8c2 0.2 5.3 0.2 7.5 0 2.2-0.2 0.7-0.4-3.5-0.4-4.1 0-5.9 0.2-4 0.4zm370 4c2.5 0.2 6.8 0.2 9.5 0 2.8-0.2 0.8-0.4-4.5-0.4-5.2 0-7.4 0.2-5 0.4zm-1045.6 21.3c0 6.3 0.2 8.8 0.4 5.5 0.2-3.3 0.2-8.5 0-11.5-0.2-3-0.4-0.3-0.4 6zm754.1 20c0 10.7 0.1 15.2 0.3 10 0.2-5.2 0.2-14 0-19.5-0.2-5.5-0.3-1.2-0.3 9.5zm-739.4 17.7c0.8 1 3.2 3.5 5.4 5.6 2.2 2.1 5.6 5.2 7.5 7 2 1.7-0.2-0.8-4.7-5.6-4.5-4.8-8.5-8.7-9-8.7-0.4 0-0.1 0.8 0.8 1.7zm-152.4 7.5c1.1 1.3 3.2 3.4 4.5 4.8 1.3 1.4 3.2 3.2 4.3 3.9 1.1 0.8-0.5-1.3-3.7-4.7-3.1-3.4-6-6.2-6.5-6.2-0.4-0.1 0.2 1 1.4 2.2zm1769.8 23.8c0 12.4 0.1 17.3 0.3 11 0.2-6.3 0.2-16.5 0-22.5-0.2-6.1-0.3-0.9-0.3 11.5zm-661 3.7c2.8 0.2 6.8 0.2 9 0 2.2-0.2 0-0.4-5-0.4-4.9 0-6.7 0.2-4 0.4zm41 1c5.5 0.2 14.1 0.2 19 0 5-0.1 0.5-0.3-10-0.3-10.4 0-14.5 0.2-9 0.3zm-372.5 1c4.7 0.2 12.8 0.2 18 0 5.3-0.1 1.4-0.3-8.5-0.3-9.9 0-14.1 0.1-9.5 0.3zm-945.5 3c3.3 0.2 8.3 0.2 11 0 2.8-0.2 0.1-0.3-6-0.3-6 0-8.3 0.1-5 0.3z"/><path  d="m262.5 448.7c-1.1 0.3-4.7 1.4-8 2.4-3.3 1.1-8.5 3.5-11.5 5.4-3 1.8-7.5 5.3-10 7.7-2.5 2.3-6 6.1-7.9 8.3-1.8 2.2-5 6.5-7.1 9.5-2 3-4.5 7.1-5.5 9-1 1.9-2.4 5.5-3.1 8-0.7 2.5-2.4 7.6-3.8 11.5-1.3 3.9-2.6 9-2.9 11.5-0.3 2.5-1.3 9.7-2.1 16-0.9 6.3-1.8 13.8-2.1 16.5-0.2 2.8-1 10.2-1.6 16.5-0.6 6.6-0.8 16.8-0.5 24 0.4 6.9 0.8 14.3 1.1 16.5 0.2 2.2 1.1 6.9 2 10.5 0.9 3.6 1.9 8.3 2.1 10.5 0.3 2.2 0.7 4.7 1 5.5 0.3 0.8 0.8 3.1 1.1 5 0.3 1.9 2.3 8.5 4.5 14.5 2.2 6 4.9 12.6 6.1 14.5 1.1 1.9 2.6 4.2 3.4 5 0.7 0.8 3.7 4.4 6.6 8 3 3.6 7.6 8.4 10.3 10.7 2.7 2.3 5.5 4.2 6.2 4.3 0.6 0 1.3 0.4 1.4 0.9 0.2 0.4 3.7 2.4 7.8 4.4 4.1 2 9.5 4.1 12 4.7 3 0.8 12.2 1 28 0.8 22.5-0.4 23.9-0.6 31.5-3.2 4.4-1.5 9.6-3.7 11.5-4.9 1.9-1.2 5.1-3.6 7-5.2 2-1.6 6-5.7 8.9-9 2.9-3.3 6.4-7.8 7.7-10 1.3-2.2 4.4-9.4 6.9-16 2.5-6.6 4.8-14.2 5.1-17 0.3-2.7 1.1-8.4 1.9-12.5 0.8-4.1 2.1-10.6 2.9-14.5 0.8-3.9 2-11.7 2.5-17.5 0.6-5.8 1-16.4 1-23.5 0-7.1-0.4-17-1-22-0.6-5-1.9-12.8-3-17.5-1.2-4.7-2.3-9.9-2.6-11.5-0.2-1.6-1.1-6-1.9-9.7-0.8-3.8-1.8-7.7-2.4-8.8-0.6-1.1-0.8-2-0.5-2 0.3 0-0.7-3-2.1-6.7-1.4-3.8-4.3-10.3-6.5-14.5-2.1-4.3-4.3-7.8-4.9-7.8-0.6 0-1-0.6-1-1.2 0-0.7-3.5-4.7-7.7-8.9-6.4-6.1-9.8-8.5-18.8-13l-11-5.4c-38-0.3-49.9-0.1-51 0.2z"/><path class="a" d="m280 447.7c3.6 0.2 9.6 0.2 13.5 0 3.9-0.2 0.9-0.3-6.5-0.3-7.4 0-10.6 0.1-7 0.3zm-1.5 264c3.3 0.2 8.9 0.2 12.5 0 3.6-0.2 0.9-0.3-6-0.3-6.9 0-9.8 0.1-6.5 0.3z"/></svg>